RobotoSerifDisplay-RegularConditalic 00m.ufo
<glyph name="one" format="2">
  <advance width="393"/>
  <unicode hex="0031"/>
  <outline>
    <contour>
      <point x="233" y="71" type="curve" smooth="yes"/>
      <point x="328" y="609" type="line"/>
      <point x="277" y="609" type="line"/>
      <point x="240" y="551"/>
      <point x="187" y="527"/>
      <point x="112" y="526" type="curve"/>
      <point x="101" y="468" type="line"/>
      <point x="159" y="467"/>
      <point x="226" y="516"/>
      <point x="249" y="568" type="curve"/>
      <point x="237" y="555" type="line"/>
      <point x="153" y="71" type="line" smooth="yes"/>
      <point x="146" y="40"/>
      <point x="116" y="32"/>
      <point x="65" y="32" type="curve" smooth="yes"/>
      <point x="37" y="32" type="line"/>
      <point x="31" y="0" type="line"/>
      <point x="327" y="0" type="line"/>
      <point x="333" y="32" type="line"/>
      <point x="312" y="32" type="line" smooth="yes"/>
      <point x="257" y="32"/>
      <point x="227" y="40"/>
    </contour>
  </outline>
</glyph>
<glyph name="two" format="2">
  <advance width="393"/>
  <unicode hex="0032"/>
  <outline>
    <contour>
      <point x="-9" y="0" type="line"/>
      <point x="2" y="56" type="line"/>
      <point x="183" y="181"/>
      <point x="296" y="299"/>
      <point x="304" y="457" type="curve" smooth="yes"/>
      <point x="308" y="539"/>
      <point x="282" y="587"/>
      <point x="233" y="587" type="curve" smooth="yes"/>
      <point x="200" y="587"/>
      <point x="176" y="576"/>
      <point x="137" y="541" type="curve"/>
      <point x="145" y="550"/>
      <point x="147" y="561"/>
      <point x="164" y="568" type="curve"/>
      <point x="143" y="445" type="line"/>
      <point x="74" y="445" type="line"/>
      <point x="92" y="548" type="line"/>
      <point x="121" y="577"/>
      <point x="173" y="618"/>
      <point x="239" y="618" type="curve" smooth="yes"/>
      <point x="341" y="618"/>
      <point x="388" y="554"/>
      <point x="383" y="449" type="curve" smooth="yes"/>
      <point x="374" y="294"/>
      <point x="221" y="173"/>
      <point x="41" y="52" type="curve"/>
      <point x="46" y="76" type="line"/>
      <point x="218" y="76" type="line" smooth="yes"/>
      <point x="278" y="76"/>
      <point x="303" y="89"/>
      <point x="315" y="131" type="curve" smooth="yes"/>
      <point x="339" y="210" type="line"/>
      <point x="363" y="210" type="line"/>
      <point x="326" y="0" type="line"/>
    </contour>
  </outline>
</glyph>
<glyph name="three" format="2">
  <advance width="393"/>
  <unicode hex="0033"/>
  <outline>
    <contour>
      <point x="168" y="-90" type="curve" smooth="yes"/>
      <point x="73" y="-90"/>
      <point x="17" y="-24"/>
      <point x="1" y="78" type="curve"/>
      <point x="25" y="97" type="line"/>
      <point x="38" y="12"/>
      <point x="79" y="-57"/>
      <point x="164" y="-57" type="curve" smooth="yes"/>
      <point x="234" y="-57"/>
      <point x="273" y="23"/>
      <point x="278" y="123" type="curve" smooth="yes"/>
      <point x="283" y="205"/>
      <point x="260" y="269"/>
      <point x="171" y="269" type="curve" smooth="yes"/>
      <point x="133" y="269" type="line"/>
      <point x="139" y="299" type="line"/>
      <point x="181" y="299" type="line" smooth="yes"/>
      <point x="267" y="299"/>
      <point x="306" y="368"/>
      <point x="311" y="461" type="curve" smooth="yes"/>
      <point x="315" y="537"/>
      <point x="294" y="585"/>
      <point x="242" y="585" type="curve" smooth="yes"/>
      <point x="215" y="585"/>
      <point x="188" y="577"/>
      <point x="153" y="545" type="curve"/>
      <point x="160" y="555"/>
      <point x="169" y="565"/>
      <point x="176" y="575" type="curve"/>
      <point x="158" y="447" type="line"/>
      <point x="89" y="447" type="line"/>
      <point x="105" y="558" type="line"/>
      <point x="134" y="585"/>
      <point x="184" y="618"/>
      <point x="248" y="618" type="curve" smooth="yes"/>
      <point x="337" y="618"/>
      <point x="393" y="556"/>
      <point x="388" y="458" type="curve" smooth="yes"/>
      <point x="383" y="367"/>
      <point x="314" y="293"/>
      <point x="217" y="286" type="curve"/>
      <point x="238" y="295" type="line"/>
      <point x="237" y="283" type="line"/>
      <point x="218" y="293" type="line"/>
      <point x="323" y="279"/>
      <point x="361" y="200"/>
      <point x="357" y="113" type="curve" smooth="yes"/>
      <point x="350" y="-11"/>
      <point x="273" y="-90"/>
    </contour>
  </outline>
</glyph>
<glyph name="four" format="2">
  <advance width="393"/>
  <unicode hex="0034"/>
  <outline>
    <contour>
      <point x="5" y="112" type="line"/>
      <point x="374" y="112" type="line"/>
      <point x="386" y="175" type="line"/>
      <point x="41" y="175" type="line"/>
      <point x="36" y="145" type="line"/>
      <point x="338" y="601" type="line"/>
      <point x="342" y="609" type="line"/>
      <point x="313" y="609" type="line"/>
      <point x="15" y="166" type="line"/>
    </contour>
    <contour>
      <point x="265" y="-77" type="line"/>
      <point x="385" y="609" type="line"/>
      <point x="326" y="609" type="line"/>
      <point x="299" y="573" type="line"/>
      <point x="186" y="-77" type="line"/>
    </contour>
  </outline>
</glyph>
<glyph name="eight" format="2">
  <advance width="393"/>
  <unicode hex="0038"/>
  <outline>
    <contour>
      <point x="185" y="23" type="curve" smooth="yes"/>
      <point x="128" y="23"/>
      <point x="96" y="81"/>
      <point x="102" y="187" type="curve" smooth="yes"/>
      <point x="103" y="202"/>
      <point x="103" y="216"/>
      <point x="107" y="231" type="curve" smooth="yes"/>
      <point x="122" y="309"/>
      <point x="162" y="361"/>
      <point x="212" y="361" type="curve" smooth="yes"/>
      <point x="270" y="361"/>
      <point x="298" y="301"/>
      <point x="293" y="218" type="curve" smooth="yes"/>
      <point x="292" y="199"/>
      <point x="290" y="181"/>
      <point x="287" y="163" type="curve" smooth="yes"/>
      <point x="271" y="79"/>
      <point x="236" y="23"/>
    </contour>
    <contour>
      <point x="242" y="391" type="curve" smooth="yes"/>
      <point x="197" y="391"/>
      <point x="173" y="440"/>
      <point x="178" y="526" type="curve" smooth="yes"/>
      <point x="178" y="543"/>
      <point x="179" y="560"/>
      <point x="183" y="576" type="curve" smooth="yes"/>
      <point x="197" y="647"/>
      <point x="226" y="687"/>
      <point x="266" y="687" type="curve" smooth="yes"/>
      <point x="310" y="687"/>
      <point x="335" y="640"/>
      <point x="330" y="554" type="curve" smooth="yes"/>
      <point x="329" y="537"/>
      <point x="326" y="521"/>
      <point x="324" y="506" type="curve" smooth="yes"/>
      <point x="311" y="435"/>
      <point x="279" y="391"/>
    </contour>
    <contour>
      <point x="183" y="-10" type="curve" smooth="yes"/>
      <point x="295" y="-10"/>
      <point x="369" y="84"/>
      <point x="375" y="197" type="curve" smooth="yes"/>
      <point x="380" y="293"/>
      <point x="337" y="357"/>
      <point x="266" y="378" type="curve"/>
      <point x="269" y="368" type="line"/>
      <point x="274" y="380" type="line"/>
      <point x="264" y="370" type="line"/>
      <point x="349" y="381"/>
      <point x="400" y="451"/>
      <point x="405" y="545" type="curve" smooth="yes"/>
      <point x="410" y="648"/>
      <point x="354" y="720"/>
      <point x="268" y="720" type="curve" smooth="yes"/>
      <point x="176" y="720"/>
      <point x="108" y="643"/>
      <point x="102" y="542" type="curve" smooth="yes"/>
      <point x="98" y="463"/>
      <point x="132" y="402"/>
      <point x="187" y="379" type="curve"/>
      <point x="181" y="389" type="line"/>
      <point x="179" y="378" type="line"/>
      <point x="187" y="386" type="line"/>
      <point x="92" y="376"/>
      <point x="26" y="307"/>
      <point x="20" y="194" type="curve" smooth="yes"/>
      <point x="14" y="72"/>
      <point x="85" y="-10"/>
    </contour>
  </outline>
</glyph>
<glyph name="D" format="2">
  <advance width="538"/>
  <unicode hex="0044"/>
  <anchor x="317" y="741" name="top"/>
  <anchor x="278" y="0" name="bottom"/>
  <outline>
    <contour>
      <point x="110" y="679" type="line"/>
      <point x="115" y="679" type="line" smooth="yes"/>
      <point x="137" y="679"/>
      <point x="162" y="672"/>
      <point x="162" y="652" type="curve" smooth="yes"/>
      <point x="162" y="650"/>
      <point x="162" y="649"/>
      <point x="162" y="647" type="curve" smooth="yes"/>
      <point x="58" y="62" type="line" smooth="yes"/>
      <point x="53" y="36"/>
      <point x="27" y="31"/>
      <point x="0" y="31" type="curve" smooth="yes"/>
      <point x="-5" y="31" type="line"/>
      <point x="-10" y="0" type="line"/>
      <point x="211" y="0" type="line" smooth="yes"/>
      <point x="408.0" y="0.0"/>
      <point x="539" y="190"/>
      <point x="539.0" y="424" type="curve" smooth="yes"/>
      <point x="539" y="609"/>
      <point x="458.0" y="710.0"/>
      <point x="301" y="710" type="curve" smooth="yes"/>
      <point x="115" y="710" type="line"/>
    </contour>
    <contour>
      <point x="303" y="677" type="line" smooth="yes"/>
      <point x="405.0" y="677.0"/>
      <point x="453" y="606"/>
      <point x="453.0" y="442.0" type="curve" smooth="yes"/>
      <point x="453" y="224"/>
      <point x="369" y="33.0"/>
      <point x="216" y="33" type="curve" smooth="yes"/>
      <point x="136" y="33" type="line"/>
      <point x="250" y="677" type="line"/>
    </contour>
  </outline>
</glyph>
<glyph name="N" format="2">
  <advance width="532"/>
  <unicode hex="004E"/>
  <guideline x="267" y="710" angle="281.8969913650747" identifier="dg4Wd3RbnT"/>
  <anchor x="312" y="741" name="top"/>
  <anchor x="273" y="0" name="bottom"/>
  <outline>
    <contour>
      <point x="-8" y="0" type="line"/>
      <point x="142" y="0" type="line"/>
      <point x="148" y="31" type="line"/>
      <point x="136" y="31" type="line" smooth="yes"/>
      <point x="108" y="31"/>
      <point x="89" y="38"/>
      <point x="93" y="62" type="curve" smooth="yes"/>
      <point x="202" y="692" type="line"/>
      <point x="190" y="693" type="line"/>
      <point x="336" y="0" type="line"/>
      <point x="394" y="0" type="line"/>
      <point x="502" y="615" type="line" smooth="yes"/>
      <point x="510" y="660"/>
      <point x="535.0" y="679.0"/>
      <point x="562" y="679" type="curve" smooth="yes"/>
      <point x="570" y="679" type="line"/>
      <point x="575" y="710" type="line"/>
      <point x="425" y="710" type="line"/>
      <point x="419" y="679" type="line"/>
      <point x="431" y="679" type="line" smooth="yes"/>
      <point x="459.0" y="679.0"/>
      <point x="477" y="672"/>
      <point x="474" y="648" type="curve"/>
      <point x="378" y="93" type="line"/>
      <point x="395" y="102" type="line"/>
      <point x="267" y="710" type="line"/>
      <point x="117" y="710" type="line"/>
      <point x="112" y="679" type="line"/>
      <point x="119" y="679" type="line" smooth="yes"/>
      <point x="143" y="679"/>
      <point x="167" y="673"/>
      <point x="162" y="645" type="curve" smooth="yes"/>
      <point x="65" y="95" type="line" smooth="yes"/>
      <point x="57" y="50"/>
      <point x="32" y="31"/>
      <point x="5" y="31" type="curve" smooth="yes"/>
      <point x="-3" y="31" type="line"/>
    </contour>
  </outline>
</glyph>
<glyph name="O" format="2">
  <advance width="507"/>
  <unicode hex="004F"/>
  <anchor x="292" y="741" name="top"/>
  <anchor x="253" y="0" name="bottom"/>
  <outline>
    <contour>
      <point x="318.0" y="720.0" type="curve" smooth="yes"/>
      <point x="157.0" y="720.0"/>
      <point x="44.0" y="503.0"/>
      <point x="44" y="285" type="curve" smooth="yes"/>
      <point x="44" y="108.0"/>
      <point x="124" y="-10"/>
      <point x="243" y="-10" type="curve" smooth="yes"/>
      <point x="404.0" y="-10.0"/>
      <point x="517.0" y="207.0"/>
      <point x="517.0" y="425.0" type="curve" smooth="yes"/>
      <point x="517.0" y="602.0"/>
      <point x="437.0" y="720.0"/>
    </contour>
    <contour>
      <point x="243" y="25" type="curve" smooth="yes"/>
      <point x="174.0" y="25"/>
      <point x="130" y="104"/>
      <point x="130" y="252" type="curve" smooth="yes"/>
      <point x="130.0" y="444.0"/>
      <point x="194.0" y="685.0"/>
      <point x="318.0" y="685.0" type="curve" smooth="yes"/>
      <point x="387.0" y="685.0"/>
      <point x="431.0" y="606.0"/>
      <point x="431.0" y="458.0" type="curve" smooth="yes"/>
      <point x="431.0" y="266.0"/>
      <point x="367.0" y="25.0"/>
    </contour>
  </outline>
</glyph>
<glyph name="R" format="2">
  <advance width="483"/>
  <unicode hex="0052"/>
  <guideline x="349" y="365" angle="97.66990518617729" identifier="6ckfsXdRfc"/>
  <anchor x="331" y="741" name="top"/>
  <anchor x="292" y="0" name="bottom"/>
  <outline>
    <contour>
      <point x="-10" y="0" type="line"/>
      <point x="190" y="0" type="line"/>
      <point x="196" y="31" type="line"/>
      <point x="188" y="31" type="line" smooth="yes"/>
      <point x="164" y="31"/>
      <point x="137" y="34"/>
      <point x="137" y="41" type="curve" smooth="yes"/>
      <point x="137" y="41"/>
      <point x="137" y="41"/>
      <point x="137" y="41" type="curve" smooth="yes"/>
      <point x="189" y="340" type="line"/>
      <point x="268" y="340" type="line" smooth="yes"/>
      <point x="290" y="340"/>
      <point x="310" y="343"/>
      <point x="329" y="348" type="curve" smooth="yes"/>
      <point x="420.34457267411864" y="373.19850280665344"/>
      <point x="475" y="446"/>
      <point x="475.0" y="542" type="curve" smooth="yes"/>
      <point x="475" y="645"/>
      <point x="412" y="710"/>
      <point x="301" y="710" type="curve" smooth="yes"/>
      <point x="115" y="710" type="line"/>
      <point x="110" y="679" type="line"/>
      <point x="115" y="679" type="line" smooth="yes"/>
      <point x="139.0" y="679.0"/>
      <point x="166" y="671"/>
      <point x="162" y="647" type="curve" smooth="yes"/>
      <point x="58" y="62" type="line" smooth="yes"/>
      <point x="53" y="36"/>
      <point x="27" y="31"/>
      <point x="0" y="31" type="curve" smooth="yes"/>
      <point x="-5" y="31" type="line"/>
    </contour>
    <contour>
      <point x="297" y="677" type="line" smooth="yes"/>
      <point x="361" y="677"/>
      <point x="391" y="630"/>
      <point x="391.0" y="549" type="curve" smooth="yes"/>
      <point x="391.0" y="480.0"/>
      <point x="369.2352941176471" y="371.0"/>
      <point x="261" y="371" type="curve" smooth="yes"/>
      <point x="195" y="371" type="line"/>
      <point x="250" y="677" type="line"/>
    </contour>
    <contour>
      <point x="272" y="349" type="line"/>
      <point x="319" y="0" type="line"/>
      <point x="437" y="0" type="line"/>
      <point x="443" y="31" type="line"/>
      <point x="436" y="31" type="line" smooth="yes"/>
      <point x="412.0" y="31"/>
      <point x="396" y="35"/>
      <point x="392" y="61" type="curve" smooth="yes"/>
      <point x="351" y="365" type="line"/>
    </contour>
  </outline>
</glyph>
<glyph name="T" format="2">
  <advance width="449"/>
  <unicode hex="0054"/>
  <anchor x="253" y="741" name="top"/>
  <anchor x="214" y="0" name="bottom"/>
  <outline>
    <contour>
      <point x="153" y="67" type="line" smooth="yes"/>
      <point x="148" y="37"/>
      <point x="121" y="31"/>
      <point x="94" y="31" type="curve" smooth="yes"/>
      <point x="83" y="31" type="line"/>
      <point x="77" y="0" type="line"/>
      <point x="286" y="0" type="line"/>
      <point x="293" y="31" type="line"/>
      <point x="281" y="31" type="line" smooth="yes"/>
      <point x="254" y="31"/>
      <point x="231" y="37"/>
      <point x="236" y="67" type="curve" smooth="yes"/>
      <point x="344" y="677" type="line"/>
      <point x="386" y="677" type="line" smooth="yes"/>
      <point x="441" y="677"/>
      <point x="453" y="661"/>
      <point x="453" y="620" type="curve" smooth="yes"/>
      <point x="452" y="526" type="line"/>
      <point x="480" y="526" type="line"/>
      <point x="513" y="710" type="line"/>
      <point x="105" y="710" type="line"/>
      <point x="72" y="526" type="line"/>
      <point x="100" y="526" type="line"/>
      <point x="133" y="615" type="line" smooth="yes"/>
      <point x="150" y="660"/>
      <point x="165" y="677"/>
      <point x="217" y="677" type="curve" smooth="yes"/>
      <point x="261" y="677" type="line"/>
    </contour>
  </outline>
</glyph>
<glyph name="Z" format="2">
  <advance width="437"/>
  <unicode hex="005A"/>
  <guideline x="477" y="668" angle="58.06653614265456" identifier="fCoPWvlPHV"/>
  <anchor x="276" y="741" name="top"/>
  <anchor x="237" y="0" name="bottom"/>
  <outline>
    <contour>
      <point x="45" y="33" type="line"/>
      <point x="64" y="2" type="line"/>
      <point x="479" y="676" type="line"/>
      <point x="485" y="710" type="line"/>
      <point x="126" y="710" type="line"/>
      <point x="94" y="528" type="line"/>
      <point x="122" y="528" type="line"/>
      <point x="153" y="620" type="line" smooth="yes"/>
      <point x="167" y="663"/>
      <point x="191" y="677"/>
      <point x="248" y="677" type="curve" smooth="yes"/>
      <point x="421" y="677" type="line"/>
      <point x="404" y="698" type="line"/>
      <point x="-4" y="35" type="line"/>
      <point x="-10" y="0" type="line"/>
      <point x="368" y="0" type="line"/>
      <point x="405" y="212" type="line"/>
      <point x="377" y="212" type="line"/>
      <point x="342" y="93" type="line" smooth="yes"/>
      <point x="329" y="49"/>
      <point x="305" y="33"/>
      <point x="245" y="33" type="curve" smooth="yes"/>
    </contour>
  </outline>
</glyph>
<glyph name="backslash" format="2">
  <advance width="277"/>
  <unicode hex="005C"/>
  <outline>
    <contour>
      <point x="110" y="749" type="line"/>
      <point x="83" y="749" type="line"/>
      <point x="201" y="-129" type="line"/>
      <point x="228" y="-129" type="line"/>
    </contour>
  </outline>
</glyph>
<glyph name="e" format="2">
  <advance width="352"/>
  <unicode hex="0065"/>
  <anchor x="205" y="518" name="top"/>
  <anchor x="319" y="1" name="right"/>
  <anchor x="198" y="0" name="bottom"/>
  <outline>
    <contour>
      <point x="180" y="-10" type="curve" smooth="yes"/>
      <point x="247" y="-10"/>
      <point x="301" y="34"/>
      <point x="337" y="133" type="curve"/>
      <point x="316" y="154" type="line"/>
      <point x="290" y="79"/>
      <point x="250" y="28"/>
      <point x="199" y="28" type="curve" smooth="yes"/>
      <point x="147" y="28"/>
      <point x="118" y="82"/>
      <point x="118.0" y="192.0" type="curve" smooth="yes"/>
      <point x="118.0" y="336.0"/>
      <point x="169" y="495.0"/>
      <point x="251" y="495.0" type="curve" smooth="yes"/>
      <point x="284" y="495"/>
      <point x="296" y="467"/>
      <point x="296.0" y="431.0" type="curve" smooth="yes"/>
      <point x="296.0" y="369.0"/>
      <point x="260" y="298"/>
      <point x="101" y="244" type="curve"/>
      <point x="95" y="214" type="line"/>
      <point x="267" y="268"/>
      <point x="364.0" y="338.0"/>
      <point x="364.0" y="429.0" type="curve" smooth="yes"/>
      <point x="364" y="484"/>
      <point x="329" y="528"/>
      <point x="261" y="528.0" type="curve" smooth="yes"/>
      <point x="116" y="528.0"/>
      <point x="35.0" y="349.0"/>
      <point x="35.0" y="195.0" type="curve" smooth="yes"/>
      <point x="35" y="64"/>
      <point x="93" y="-10"/>
    </contour>
  </outline>
</glyph>
<glyph name="h" format="2">
  <advance width="428"/>
  <unicode hex="0068"/>
  <anchor x="265" y="755" name="top"/>
  <anchor x="216" y="0" name="bottom"/>
  <outline>
    <contour>
      <point x="34" y="0" type="line"/>
      <point x="153" y="673" type="line" smooth="yes"/>
      <point x="159" y="702"/>
      <point x="144" y="709"/>
      <point x="115" y="718" type="curve" smooth="yes"/>
      <point x="107" y="720" type="line"/>
      <point x="112" y="750" type="line"/>
      <point x="245" y="750" type="line"/>
      <point x="112" y="0" type="line"/>
    </contour>
    <contour>
      <point x="347" y="97" type="line" smooth="yes"/>
      <point x="344" y="85"/>
      <point x="342" y="74"/>
      <point x="341" y="66" type="curve" smooth="yes"/>
      <point x="340" y="41"/>
      <point x="348" y="31"/>
      <point x="364" y="31" type="curve" smooth="yes"/>
      <point x="384" y="31"/>
      <point x="403" y="49"/>
      <point x="415" y="60" type="curve"/>
      <point x="407" y="28" type="line"/>
      <point x="393" y="10"/>
      <point x="365" y="-10"/>
      <point x="334" y="-10" type="curve" smooth="yes"/>
      <point x="291" y="-10"/>
      <point x="264" y="20"/>
      <point x="267" y="84" type="curve" smooth="yes"/>
      <point x="268" y="96"/>
      <point x="271" y="109"/>
      <point x="274" y="124" type="curve" smooth="yes"/>
      <point x="314" y="356" type="line" smooth="yes"/>
      <point x="318" y="377"/>
      <point x="321" y="403"/>
      <point x="322" y="422" type="curve" smooth="yes"/>
      <point x="324" y="458"/>
      <point x="316" y="485"/>
      <point x="287" y="485" type="curve" smooth="yes"/>
      <point x="241" y="485"/>
      <point x="206" y="420"/>
      <point x="159" y="281" type="curve"/>
      <point x="149" y="308" type="line"/>
      <point x="199" y="454"/>
      <point x="247" y="528"/>
      <point x="316" y="528" type="curve" smooth="yes"/>
      <point x="376" y="528"/>
      <point x="403" y="478"/>
      <point x="399" y="408" type="curve" smooth="yes"/>
      <point x="398" y="388"/>
      <point x="396" y="368"/>
      <point x="391" y="349" type="curve" smooth="yes"/>
    </contour>
  </outline>
</glyph>
<glyph name="j" format="2">
  <advance width="210"/>
  <unicode hex="006A"/>
  <outline>
    <contour>
      <point x="27" y="-72" type="line" smooth="yes"/>
      <point x="10" y="-168"/>
      <point x="-12" y="-202"/>
      <point x="-54" y="-202" type="curve" smooth="yes"/>
      <point x="-75" y="-202"/>
      <point x="-91" y="-194"/>
      <point x="-103" y="-184" type="curve"/>
      <point x="-109" y="-216" type="line"/>
      <point x="-96" y="-225"/>
      <point x="-71" y="-236"/>
      <point x="-42" y="-236" type="curve" smooth="yes"/>
      <point x="33" y="-236"/>
      <point x="86" y="-192"/>
      <point x="111" y="-54" type="curve" smooth="yes"/>
      <point x="210" y="518" type="line"/>
      <point x="77" y="518" type="line"/>
      <point x="73" y="488" type="line"/>
      <point x="79" y="486" type="line" smooth="yes"/>
      <point x="109" y="477"/>
      <point x="123" y="470"/>
      <point x="118" y="442" type="curve" smooth="yes"/>
    </contour>
    <contour>
      <point x="194" y="638" type="curve" smooth="yes"/>
      <point x="223" y="638"/>
      <point x="246" y="662"/>
      <point x="248" y="701" type="curve" smooth="yes"/>
      <point x="250" y="739"/>
      <point x="230" y="763"/>
      <point x="201" y="763" type="curve" smooth="yes"/>
      <point x="172" y="763"/>
      <point x="150" y="739"/>
      <point x="148" y="701" type="curve" smooth="yes"/>
      <point x="146" y="662"/>
      <point x="165" y="638"/>
    </contour>
  </outline>
</glyph>
<glyph name="l" format="2">
  <advance width="208"/>
  <unicode hex="006C"/>
  <anchor x="143" y="746" name="top"/>
  <anchor x="245" y="735" name="right"/>
  <anchor x="280" y="391" name="mid"/>
  <anchor x="107" y="0" name="bottom"/>
  <outline>
    <contour>
      <point x="124" y="79" type="curve"/>
      <point x="240" y="750" type="line"/>
      <point x="108" y="750" type="line"/>
      <point x="104" y="720" type="line"/>
      <point x="110" y="718" type="line" smooth="yes"/>
      <point x="140.0" y="708"/>
      <point x="154" y="702"/>
      <point x="149" y="674" type="curve" smooth="yes"/>
      <point x="49" y="104" type="line"/>
      <point x="35" y="24"/>
      <point x="63" y="-10"/>
      <point x="109" y="-10" type="curve" smooth="yes"/>
      <point x="144" y="-10"/>
      <point x="173" y="10"/>
      <point x="187" y="28" type="curve"/>
      <point x="195" y="60" type="line"/>
      <point x="180" y="45"/>
      <point x="163" y="31"/>
      <point x="144" y="31" type="curve" smooth="yes"/>
      <point x="123" y="31"/>
      <point x="119" y="48"/>
    </contour>
  </outline>
</glyph>
<glyph name="s" format="2">
  <advance width="341"/>
  <unicode hex="0073"/>
  <anchor x="201" y="518" name="top"/>
  <anchor x="177" y="0" name="bottom"/>
  <outline>
    <contour>
      <point x="161" y="-10.0" type="curve" smooth="yes"/>
      <point x="247" y="-10"/>
      <point x="316" y="43"/>
      <point x="316.0" y="134" type="curve" smooth="yes"/>
      <point x="316" y="277"/>
      <point x="146.0" y="296"/>
      <point x="146.0" y="412" type="curve" smooth="yes"/>
      <point x="146" y="462"/>
      <point x="178" y="496"/>
      <point x="228" y="496.0" type="curve" smooth="yes"/>
      <point x="261" y="496"/>
      <point x="288" y="481"/>
      <point x="308" y="437" type="curve"/>
      <point x="307" y="460"/>
      <point x="298" y="478"/>
      <point x="284" y="492" type="curve"/>
      <point x="265" y="384" type="line"/>
      <point x="329" y="384" type="line"/>
      <point x="346" y="473" type="line"/>
      <point x="323" y="504"/>
      <point x="281" y="528"/>
      <point x="227" y="528.0" type="curve" smooth="yes"/>
      <point x="146" y="528"/>
      <point x="81" y="473"/>
      <point x="81" y="384" type="curve" smooth="yes"/>
      <point x="81.0" y="242"/>
      <point x="246" y="231"/>
      <point x="246" y="112" type="curve" smooth="yes"/>
      <point x="246" y="64"/>
      <point x="219" y="23"/>
      <point x="158" y="23" type="curve" smooth="yes"/>
      <point x="119" y="23"/>
      <point x="85" y="40"/>
      <point x="69" y="72" type="curve"/>
      <point x="69" y="61"/>
      <point x="72" y="52"/>
      <point x="78" y="45" type="curve"/>
      <point x="99" y="158" type="line"/>
      <point x="33" y="158" type="line"/>
      <point x="16" y="62" type="line"/>
      <point x="32" y="34"/>
      <point x="84" y="-10"/>
    </contour>
  </outline>
</glyph>
<glyph name="x" format="2">
  <advance width="371"/>
  <unicode hex="0078"/>
  <outline>
    <contour>
      <point x="227" y="272" type="line"/>
      <point x="398" y="513" type="line"/>
      <point x="398" y="518" type="line"/>
      <point x="336" y="518" type="line"/>
      <point x="217" y="290" type="line"/>
    </contour>
    <contour>
      <point x="1" y="0" type="line"/>
      <point x="64" y="0" type="line"/>
      <point x="188" y="246" type="line"/>
      <point x="174" y="267" type="line"/>
      <point x="1" y="5" type="line"/>
    </contour>
    <contour>
      <point x="285" y="-10" type="curve" smooth="yes"/>
      <point x="313" y="-10"/>
      <point x="337" y="3"/>
      <point x="351" y="17" type="curve"/>
      <point x="354" y="47" type="line"/>
      <point x="345" y="39"/>
      <point x="333" y="31"/>
      <point x="320" y="31" type="curve" smooth="yes"/>
      <point x="297" y="31"/>
      <point x="287" y="54"/>
      <point x="272" y="126" type="curve" smooth="yes"/>
      <point x="188" y="518" type="line"/>
      <point x="78" y="518" type="line"/>
      <point x="73" y="488" type="line"/>
      <point x="80" y="486" type="line" smooth="yes"/>
      <point x="110" y="478"/>
      <point x="121" y="470"/>
      <point x="128" y="436" type="curve" smooth="yes"/>
      <point x="199" y="99" type="line" smooth="yes"/>
      <point x="216" y="25"/>
      <point x="236" y="-10"/>
    </contour>
  </outline>
</glyph>
<glyph name="y" format="2">
  <advance width="368"/>
  <unicode hex="0079"/>
  <guideline x="160" y="518" angle="275.2922959629857" identifier="YDDwZzZpjr"/>
  <anchor x="228" y="518" name="top"/>
  <anchor x="198" y="-211" name="bottom"/>
  <outline>
    <contour>
      <point x="133" y="-51" type="line"/>
      <point x="89" y="424" type="line" smooth="yes"/>
      <point x="86" y="468"/>
      <point x="75" y="476"/>
      <point x="44" y="486" type="curve" smooth="yes"/>
      <point x="38" y="488" type="line"/>
      <point x="42" y="518" type="line"/>
      <point x="158" y="518" type="line"/>
      <point x="200" y="38" type="line"/>
      <point x="165" y="-7" type="line"/>
    </contour>
    <contour>
      <point x="186" y="39" type="line"/>
      <point x="264" y="186"/>
      <point x="323" y="374"/>
      <point x="321" y="518" type="curve"/>
      <point x="388" y="518" type="line"/>
      <point x="388" y="518" type="line"/>
      <point x="369" y="358"/>
      <point x="272" y="140"/>
      <point x="176" y="-27" type="curve" smooth="yes"/>
      <point x="90" y="-178"/>
      <point x="36" y="-232"/>
      <point x="-20" y="-232" type="curve" smooth="yes"/>
      <point x="-49" y="-232"/>
      <point x="-66" y="-218"/>
      <point x="-70" y="-214" type="curve"/>
      <point x="-54" y="-127" type="line"/>
      <point x="-49" y="-132"/>
      <point x="-28" y="-148"/>
      <point x="7" y="-148" type="curve" smooth="yes"/>
      <point x="56" y="-148"/>
      <point x="96" y="-117"/>
      <point x="149" y="-22" type="curve"/>
    </contour>
  </outline>
</glyph>
<glyph name="z" format="2">
  <advance width="358"/>
  <unicode hex="007A"/>
  <anchor x="210" y="518" name="top"/>
  <anchor x="204" y="0" name="bottom"/>
  <outline>
    <contour>
      <point x="242" y="-10" type="curve" smooth="yes"/>
      <point x="302" y="-10"/>
      <point x="339" y="55"/>
      <point x="347" y="178" type="curve"/>
      <point x="333" y="185" type="line"/>
      <point x="318" y="101"/>
      <point x="284" y="73"/>
      <point x="250" y="73" type="curve" smooth="yes"/>
      <point x="220" y="73"/>
      <point x="183" y="80"/>
      <point x="120" y="131" type="curve"/>
      <point x="87" y="81" type="line"/>
      <point x="162" y="10"/>
      <point x="199" y="-10"/>
    </contour>
    <contour>
      <point x="38" y="0" type="line"/>
      <point x="374" y="486" type="line"/>
      <point x="380" y="518" type="line"/>
      <point x="103" y="518" type="line"/>
      <point x="69" y="342" type="line"/>
      <point x="90" y="342" type="line"/>
      <point x="109" y="405" type="line" smooth="yes"/>
      <point x="119" y="436"/>
      <point x="139" y="441"/>
      <point x="191" y="441" type="curve" smooth="yes"/>
      <point x="323" y="441" type="line"/>
      <point x="330" y="488" type="line"/>
      <point x="8" y="6" type="line"/>
      <point x="7" y="0" type="line"/>
    </contour>
  </outline>
</glyph>
<glyph name="bar" format="2">
  <advance width="153"/>
  <unicode hex="007C"/>
  <outline>
    <contour>
      <point x="103" y="751" type="line"/>
      <point x="57" y="-130" type="line"/>
      <point x="87" y="-130" type="line"/>
      <point x="133" y="751" type="line"/>
    </contour>
  </outline>
</glyph>
<glyph name="asciitilde" format="2">
  <advance width="377"/>
  <unicode hex="007E"/>
  <outline>
    <contour>
      <point x="166" y="409" type="curve" smooth="yes"/>
      <point x="115" y="409"/>
      <point x="87" y="360"/>
      <point x="68" y="282" type="curve"/>
      <point x="90" y="271" type="line"/>
      <point x="100" y="315"/>
      <point x="113" y="338"/>
      <point x="136" y="338" type="curve" smooth="yes"/>
      <point x="168" y="338"/>
      <point x="207" y="269"/>
      <point x="254" y="269" type="curve" smooth="yes"/>
      <point x="306" y="269"/>
      <point x="336" y="322"/>
      <point x="357" y="396" type="curve"/>
      <point x="336" y="408" type="line"/>
      <point x="322" y="364"/>
      <point x="308" y="341"/>
      <point x="284" y="341" type="curve" smooth="yes"/>
      <point x="249" y="341"/>
      <point x="214" y="409"/>
    </contour>
  </outline>
</glyph>
<glyph name="currency" format="2">
  <advance width="393"/>
  <unicode hex="00A4"/>
  <outline>
    <contour>
      <point x="48" y="131" type="line"/>
      <point x="135" y="238" type="line"/>
      <point x="112" y="266" type="line"/>
      <point x="28" y="164" type="line"/>
    </contour>
    <contour>
      <point x="83" y="588" type="line"/>
      <point x="136" y="492" type="line"/>
      <point x="166" y="515" type="line"/>
      <point x="110" y="617" type="line"/>
    </contour>
    <contour>
      <point x="208" y="219" type="curve" smooth="yes"/>
      <point x="148" y="219"/>
      <point x="114" y="283"/>
      <point x="118" y="367" type="curve" smooth="yes"/>
      <point x="124" y="470"/>
      <point x="169" y="528"/>
      <point x="234" y="528" type="curve" smooth="yes"/>
      <point x="296" y="528"/>
      <point x="328" y="464"/>
      <point x="324" y="380" type="curve" smooth="yes"/>
      <point x="319" y="277"/>
      <point x="273" y="219"/>
    </contour>
    <contour>
      <point x="206" y="178" type="curve"/>
      <point x="289" y="178"/>
      <point x="356" y="270"/>
      <point x="362" y="380" type="curve" smooth="yes"/>
      <point x="367" y="486"/>
      <point x="319" y="569"/>
      <point x="237" y="569" type="curve" smooth="yes"/>
      <point x="154" y="569"/>
      <point x="88" y="477"/>
      <point x="82" y="367" type="curve" smooth="yes"/>
      <point x="77" y="261"/>
      <point x="124" y="178"/>
    </contour>
    <contour>
      <point x="337" y="130" type="line"/>
      <point x="363" y="160" type="line"/>
      <point x="313" y="250" type="line"/>
      <point x="286" y="222" type="line"/>
    </contour>
    <contour>
      <point x="416" y="585" type="line"/>
      <point x="395" y="617" type="line"/>
      <point x="311" y="516" type="line"/>
      <point x="329" y="481" type="line"/>
    </contour>
  </outline>
</glyph>
<glyph name="dieresis" format="2">
  <advance width="351"/>
  <unicode hex="00A8"/>
  <anchor x="187" y="526" name="_top"/>
  <outline>
    <contour>
      <point x="172" y="626" type="curve" smooth="yes"/>
      <point x="201" y="626"/>
      <point x="221" y="650"/>
      <point x="223" y="689" type="curve" smooth="yes"/>
      <point x="225" y="727"/>
      <point x="207" y="750"/>
      <point x="178" y="750" type="curve" smooth="yes"/>
      <point x="150" y="750"/>
      <point x="130" y="727"/>
      <point x="128" y="689" type="curve" smooth="yes"/>
      <point x="126" y="650"/>
      <point x="144" y="626"/>
    </contour>
    <contour>
      <point x="322" y="626" type="curve" smooth="yes"/>
      <point x="350" y="626"/>
      <point x="371" y="650"/>
      <point x="373" y="689" type="curve" smooth="yes"/>
      <point x="375" y="727"/>
      <point x="356" y="750"/>
      <point x="328" y="750" type="curve" smooth="yes"/>
      <point x="301" y="750"/>
      <point x="280" y="727"/>
      <point x="278" y="689" type="curve" smooth="yes"/>
      <point x="276" y="650"/>
      <point x="295" y="626"/>
    </contour>
  </outline>
</glyph>
<glyph name="Eth" format="2">
  <advance width="538"/>
  <unicode hex="00D0"/>
  <outline>
    <contour>
      <point x="39" y="340" type="line"/>
      <point x="313" y="340" type="line"/>
      <point x="321" y="374" type="line"/>
      <point x="45" y="374" type="line"/>
    </contour>
    <component base="D"/>
  </outline>
</glyph>
<glyph name="ae" format="2">
  <advance width="574"/>
  <unicode hex="00E6"/>
  <anchor x="317" y="518" name="top"/>
  <outline>
    <contour>
      <point x="401" y="-10" type="curve" smooth="yes"/>
      <point x="468" y="-10"/>
      <point x="523" y="35"/>
      <point x="558" y="133" type="curve"/>
      <point x="537" y="154" type="line"/>
      <point x="511" y="78"/>
      <point x="472" y="28"/>
      <point x="418" y="28" type="curve" smooth="yes"/>
      <point x="364" y="28"/>
      <point x="333" y="92"/>
      <point x="339" y="215" type="curve" smooth="yes"/>
      <point x="348" y="373"/>
      <point x="404" y="495"/>
      <point x="477" y="495" type="curve" smooth="yes"/>
      <point x="507" y="495"/>
      <point x="519" y="463"/>
      <point x="517" y="428" type="curve" smooth="yes"/>
      <point x="512" y="331"/>
      <point x="457" y="300"/>
      <point x="322" y="244" type="curve"/>
      <point x="316" y="214" type="line"/>
      <point x="462" y="270"/>
      <point x="581" y="315"/>
      <point x="586" y="418" type="curve" smooth="yes"/>
      <point x="589" y="474"/>
      <point x="553" y="528"/>
      <point x="482" y="528" type="curve" smooth="yes"/>
      <point x="405" y="528"/>
      <point x="349" y="471"/>
      <point x="311" y="384" type="curve"/>
      <point x="285" y="346"/>
      <point x="262" y="298"/>
      <point x="258" y="222" type="curve" smooth="yes"/>
      <point x="250" y="73"/>
      <point x="310" y="-10"/>
    </contour>
    <contour>
      <point x="266" y="288" type="line"/>
      <point x="340" y="337" type="line"/>
      <point x="344" y="363" type="line" smooth="yes"/>
      <point x="362" y="478"/>
      <point x="316" y="528"/>
      <point x="235" y="528" type="curve" smooth="yes"/>
      <point x="175" y="528"/>
      <point x="124" y="494"/>
      <point x="102" y="474" type="curve"/>
      <point x="85" y="382" type="line"/>
      <point x="151" y="382" type="line"/>
      <point x="170" y="491" type="line"/>
      <point x="154" y="494"/>
      <point x="132" y="472"/>
      <point x="123" y="422" type="curve"/>
      <point x="147" y="464"/>
      <point x="180" y="495"/>
      <point x="227" y="495" type="curve" smooth="yes"/>
      <point x="270" y="495"/>
      <point x="288" y="471"/>
      <point x="284" y="410" type="curve" smooth="yes"/>
      <point x="284" y="397"/>
      <point x="282" y="382"/>
      <point x="279" y="365" type="curve"/>
    </contour>
    <contour>
      <point x="127" y="-10" type="curve" smooth="yes"/>
      <point x="192" y="-10"/>
      <point x="245" y="43"/>
      <point x="283" y="138" type="curve"/>
      <point x="268" y="157" type="line"/>
      <point x="237" y="79"/>
      <point x="199" y="28"/>
      <point x="152" y="28" type="curve" smooth="yes"/>
      <point x="120" y="28"/>
      <point x="102" y="56"/>
      <point x="105" y="110" type="curve" smooth="yes"/>
      <point x="110" y="207"/>
      <point x="156" y="247"/>
      <point x="282" y="278" type="curve"/>
      <point x="287" y="308" type="line"/>
      <point x="107" y="262"/>
      <point x="34" y="218"/>
      <point x="29" y="106" type="curve" smooth="yes"/>
      <point x="25" y="30"/>
      <point x="65" y="-10"/>
    </contour>
  </outline>
</glyph>
<glyph name="idieresis" format="2">
  <advance width="214"/>
  <unicode hex="00EF"/>
  <outline>
    <contour>
      <point x="105" y="626" type="curve" smooth="yes"/>
      <point x="132" y="626"/>
      <point x="153" y="650"/>
      <point x="155" y="689" type="curve" smooth="yes"/>
      <point x="157" y="727"/>
      <point x="138" y="750"/>
      <point x="111" y="750" type="curve" smooth="yes"/>
      <point x="83" y="750"/>
      <point x="62" y="727"/>
      <point x="60" y="689" type="curve" smooth="yes"/>
      <point x="58" y="650"/>
      <point x="77" y="626"/>
    </contour>
    <contour>
      <point x="245" y="626" type="curve" smooth="yes"/>
      <point x="274" y="626"/>
      <point x="294" y="650"/>
      <point x="296" y="689" type="curve" smooth="yes"/>
      <point x="298" y="727"/>
      <point x="280" y="750"/>
      <point x="251" y="750" type="curve" smooth="yes"/>
      <point x="223" y="750"/>
      <point x="202" y="727"/>
      <point x="200" y="689" type="curve" smooth="yes"/>
      <point x="198" y="650"/>
      <point x="217" y="626"/>
    </contour>
    <component base="dotlessi"/>
  </outline>
</glyph>
<glyph name="divide" format="2">
  <advance width="393"/>
  <unicode hex="00F7"/>
  <outline>
    <contour>
      <point x="284" y="511" type="curve" smooth="yes"/>
      <point x="285" y="540"/>
      <point x="271" y="560"/>
      <point x="249" y="560" type="curve" smooth="yes"/>
      <point x="227" y="560"/>
      <point x="211" y="540"/>
      <point x="210" y="511" type="curve" smooth="yes"/>
      <point x="208" y="483"/>
      <point x="222" y="463"/>
      <point x="244" y="463" type="curve" smooth="yes"/>
      <point x="266" y="463"/>
      <point x="282" y="483"/>
    </contour>
    <contour>
      <point x="221" y="169" type="curve" smooth="yes"/>
      <point x="222" y="198"/>
      <point x="208" y="217"/>
      <point x="186" y="217" type="curve" smooth="yes"/>
      <point x="164" y="217"/>
      <point x="148" y="198"/>
      <point x="147" y="169" type="curve" smooth="yes"/>
      <point x="145" y="140"/>
      <point x="159" y="121"/>
      <point x="181" y="121" type="curve" smooth="yes"/>
      <point x="203" y="121"/>
      <point x="219" y="140"/>
    </contour>
    <component base="minus" xOffset="-4"/>
  </outline>
</glyph>
<glyph name="itilde" format="2">
  <advance width="214"/>
  <unicode hex="0129"/>
  <outline>
    <contour>
      <point x="210" y="609" type="curve" smooth="yes"/>
      <point x="246" y="609"/>
      <point x="273" y="651"/>
      <point x="292" y="730" type="curve"/>
      <point x="274" y="743" type="line"/>
      <point x="261" y="700"/>
      <point x="249" y="672"/>
      <point x="229" y="672" type="curve" smooth="yes"/>
      <point x="201" y="672"/>
      <point x="182" y="740"/>
      <point x="146" y="740" type="curve" smooth="yes"/>
      <point x="105" y="740"/>
      <point x="81" y="699"/>
      <point x="61" y="616" type="curve"/>
      <point x="80" y="605" type="line"/>
      <point x="91" y="652"/>
      <point x="105" y="678"/>
      <point x="124" y="678" type="curve" smooth="yes"/>
      <point x="148" y="678"/>
      <point x="170" y="609"/>
    </contour>
    <component base="dotlessi"/>
  </outline>
</glyph>
<glyph name="ibreve" format="2">
  <advance width="214"/>
  <unicode hex="012D"/>
  <outline>
    <contour>
      <point x="170" y="588" type="curve" smooth="yes"/>
      <point x="114" y="588"/>
      <point x="86" y="640"/>
      <point x="90" y="721" type="curve" smooth="yes"/>
      <point x="90" y="729"/>
      <point x="92" y="741"/>
      <point x="93" y="747" type="curve"/>
      <point x="116" y="747" type="line"/>
      <point x="114" y="692"/>
      <point x="128" y="657"/>
      <point x="178" y="657" type="curve" smooth="yes"/>
      <point x="225" y="657"/>
      <point x="247" y="686"/>
      <point x="261" y="747" type="curve"/>
      <point x="283" y="747" type="line"/>
      <point x="267" y="629"/>
      <point x="224" y="588"/>
    </contour>
    <component base="dotlessi"/>
  </outline>
</glyph>
<glyph name="Iogonek" format="2">
  <advance width="256"/>
  <unicode hex="012E"/>
  <outline>
    <contour>
      <point x="147" y="25" type="line"/>
      <point x="56" y="-34"/>
      <point x="-2" y="-83"/>
      <point x="-6" y="-155" type="curve" smooth="yes"/>
      <point x="-9" y="-207"/>
      <point x="21" y="-237"/>
      <point x="64" y="-237" type="curve" smooth="yes"/>
      <point x="102" y="-237"/>
      <point x="128" y="-217"/>
      <point x="147" y="-191" type="curve"/>
      <point x="138" y="-170" type="line"/>
      <point x="126" y="-187"/>
      <point x="111" y="-200"/>
      <point x="92" y="-200" type="curve" smooth="yes"/>
      <point x="74" y="-200"/>
      <point x="59" y="-184"/>
      <point x="61" y="-151" type="curve" smooth="yes"/>
      <point x="64" y="-102"/>
      <point x="81" y="-53"/>
      <point x="154" y="9" type="curve"/>
    </contour>
    <component base="I"/>
  </outline>
</glyph>
<glyph name="Eng" format="2">
  <advance width="532"/>
  <unicode hex="014A"/>
  <outline>
    <contour>
      <point x="254" y="-212" type="curve" smooth="yes"/>
      <point x="226" y="-212"/>
      <point x="201" y="-201"/>
      <point x="187" y="-192" type="curve"/>
      <point x="194" y="-156" type="line"/>
      <point x="209" y="-168"/>
      <point x="229" y="-177"/>
      <point x="258" y="-177" type="curve" smooth="yes"/>
      <point x="299" y="-177"/>
      <point x="346" y="-148"/>
      <point x="366" y="-39" type="curve" smooth="yes"/>
      <point x="375" y="17" type="line"/>
      <point x="377" y="-63" type="line"/>
      <point x="186" y="693" type="line"/>
      <point x="199" y="695" type="line"/>
      <point x="88" y="62" type="line" smooth="yes"/>
      <point x="85" y="38"/>
      <point x="103" y="31"/>
      <point x="131" y="31" type="curve" smooth="yes"/>
      <point x="150" y="31" type="line"/>
      <point x="144" y="0" type="line"/>
      <point x="-10" y="0" type="line"/>
      <point x="-5" y="31" type="line"/>
      <point x="3" y="31" type="line" smooth="yes"/>
      <point x="30" y="31"/>
      <point x="56" y="50"/>
      <point x="63" y="95" type="curve" smooth="yes"/>
      <point x="161" y="644" type="line" smooth="yes"/>
      <point x="165" y="672"/>
      <point x="141" y="679"/>
      <point x="117" y="679" type="curve" smooth="yes"/>
      <point x="110" y="679" type="line"/>
      <point x="115" y="710" type="line"/>
      <point x="267" y="710" type="line"/>
      <point x="409" y="109" type="line"/>
      <point x="392" y="98" type="line"/>
      <point x="487" y="648" type="line"/>
      <point x="490" y="672"/>
      <point x="473" y="679"/>
      <point x="445" y="679" type="curve" smooth="yes"/>
      <point x="426" y="679" type="line"/>
      <point x="432" y="710" type="line"/>
      <point x="585" y="710" type="line"/>
      <point x="580" y="679" type="line"/>
      <point x="573" y="679" type="line" smooth="yes"/>
      <point x="545" y="679"/>
      <point x="520" y="660"/>
      <point x="512" y="618" type="curve" smooth="yes"/>
      <point x="399" y="-25" type="line" smooth="yes"/>
      <point x="373" y="-172"/>
      <point x="323" y="-212"/>
    </contour>
  </outline>
</glyph>
<glyph name="tbar" format="2">
  <advance width="261"/>
  <unicode hex="0167"/>
  <outline>
    <contour>
      <point x="257" y="328" type="line"/>
      <point x="41" y="328" type="line"/>
      <point x="35" y="295" type="line"/>
      <point x="250" y="295" type="line"/>
    </contour>
    <component base="t"/>
  </outline>
</glyph>
<glyph name="Uogonek" format="2">
  <advance width="528"/>
  <unicode hex="0172"/>
  <outline>
    <contour>
      <point x="232" y="-237" type="curve" smooth="yes"/>
      <point x="270" y="-237"/>
      <point x="296" y="-217"/>
      <point x="314" y="-191" type="curve"/>
      <point x="305" y="-170" type="line"/>
      <point x="293" y="-187"/>
      <point x="278" y="-200"/>
      <point x="260" y="-200" type="curve" smooth="yes"/>
      <point x="242" y="-200"/>
      <point x="227" y="-185"/>
      <point x="229" y="-152" type="curve" smooth="yes"/>
      <point x="232" y="-95"/>
      <point x="267" y="-43"/>
      <point x="351" y="28" type="curve" smooth="yes"/>
      <point x="396" y="66"/>
      <point x="432" y="132"/>
      <point x="450" y="238" type="curve" smooth="yes"/>
      <point x="517" y="619" type="line" smooth="yes"/>
      <point x="525" y="664"/>
      <point x="552" y="679"/>
      <point x="577" y="679" type="curve" smooth="yes"/>
      <point x="585" y="679" type="line"/>
      <point x="589" y="710" type="line"/>
      <point x="437" y="710" type="line"/>
      <point x="432" y="679" type="line"/>
      <point x="446" y="679" type="line" smooth="yes"/>
      <point x="480" y="679"/>
      <point x="495" y="672"/>
      <point x="492" y="655" type="curve" smooth="yes"/>
      <point x="421" y="244" type="line" smooth="yes"/>
      <point x="396" y="102"/>
      <point x="341" y="42"/>
      <point x="267" y="42" type="curve" smooth="yes"/>
      <point x="190" y="42"/>
      <point x="154" y="99"/>
      <point x="159" y="198" type="curve" smooth="yes"/>
      <point x="161" y="223"/>
      <point x="163" y="251"/>
      <point x="170" y="290" type="curve" smooth="yes"/>
      <point x="236" y="669" type="line" smooth="yes"/>
      <point x="237" y="676"/>
      <point x="267" y="679"/>
      <point x="290" y="679" type="curve" smooth="yes"/>
      <point x="295" y="679" type="line"/>
      <point x="300" y="710" type="line"/>
      <point x="103" y="710" type="line"/>
      <point x="99" y="679" type="line"/>
      <point x="103" y="679" type="line" smooth="yes"/>
      <point x="129" y="679"/>
      <point x="154" y="673"/>
      <point x="150" y="648" type="curve" smooth="yes"/>
      <point x="89" y="297" type="line" smooth="yes"/>
      <point x="82" y="258"/>
      <point x="78" y="231"/>
      <point x="77" y="202" type="curve" smooth="yes"/>
      <point x="69" y="51"/>
      <point x="143" y="-10"/>
      <point x="245" y="-10" type="curve" smooth="yes"/>
      <point x="263" y="-10"/>
      <point x="281" y="-8"/>
      <point x="297" y="-2" type="curve"/>
      <point x="297" y="7" type="line"/>
      <point x="218" y="-45"/>
      <point x="164" y="-89"/>
      <point x="161" y="-155" type="curve" smooth="yes"/>
      <point x="158" y="-207"/>
      <point x="188" y="-237"/>
    </contour>
  </outline>
</glyph>
<glyph name="Oogonek" format="2">
  <advance width="545"/>
  <unicode hex="01EA"/>
  <outline>
    <contour>
      <point x="254" y="26" type="curve" smooth="yes"/>
      <point x="172" y="26"/>
      <point x="120" y="121"/>
      <point x="129" y="287" type="curve" smooth="yes"/>
      <point x="131" y="323"/>
      <point x="135" y="361"/>
      <point x="142" y="397" type="curve" smooth="yes"/>
      <point x="172" y="562"/>
      <point x="241" y="684"/>
      <point x="335" y="684" type="curve" smooth="yes"/>
      <point x="417" y="684"/>
      <point x="469" y="589"/>
      <point x="460" y="425" type="curve" smooth="yes"/>
      <point x="458" y="387"/>
      <point x="454" y="350"/>
      <point x="447" y="314" type="curve" smooth="yes"/>
      <point x="417" y="148"/>
      <point x="347" y="26"/>
    </contour>
    <contour>
      <point x="244" y="-237" type="curve" smooth="yes"/>
      <point x="283" y="-237"/>
      <point x="309" y="-217"/>
      <point x="327" y="-191" type="curve"/>
      <point x="319" y="-170" type="line"/>
      <point x="307" y="-187"/>
      <point x="292" y="-200"/>
      <point x="273" y="-200" type="curve" smooth="yes"/>
      <point x="255" y="-200"/>
      <point x="240" y="-184"/>
      <point x="242" y="-151" type="curve" smooth="yes"/>
      <point x="245" y="-95"/>
      <point x="296" y="-36"/>
      <point x="388" y="37" type="curve" smooth="yes"/>
      <point x="474" y="106"/>
      <point x="538" y="233"/>
      <point x="546" y="388" type="curve" smooth="yes"/>
      <point x="557" y="586"/>
      <point x="465" y="720"/>
      <point x="338" y="720" type="curve" smooth="yes"/>
      <point x="184" y="720"/>
      <point x="55" y="546"/>
      <point x="43" y="322" type="curve" smooth="yes"/>
      <point x="32" y="124"/>
      <point x="123" y="-10"/>
      <point x="251" y="-10" type="curve" smooth="yes"/>
      <point x="276" y="-10"/>
      <point x="301" y="-5"/>
      <point x="322" y="4" type="curve"/>
      <point x="332" y="17" type="line"/>
      <point x="240" y="-39"/>
      <point x="178" y="-87"/>
      <point x="175" y="-155" type="curve" smooth="yes"/>
      <point x="172" y="-207"/>
      <point x="201" y="-237"/>
    </contour>
  </outline>
</glyph>
<glyph name="circumflex" format="2">
  <advance width="351"/>
  <unicode hex="02C6"/>
  <anchor x="191" y="529" name="_top"/>
  <outline>
    <contour>
      <point x="281" y="748" type="line"/>
      <point x="332" y="590" type="line"/>
      <point x="329" y="580" type="line"/>
      <point x="310" y="580" type="line"/>
      <point x="232" y="700" type="line"/>
      <point x="259" y="697" type="line"/>
      <point x="142" y="580" type="line"/>
      <point x="117" y="580" type="line"/>
      <point x="119" y="590" type="line"/>
      <point x="225" y="748" type="line"/>
    </contour>
  </outline>
</glyph>
<glyph name="verticallinelowmod" format="2">
  <advance width="352"/>
  <unicode hex="02CC"/>
  <outline>
    <contour>
      <point x="146" y="-250" type="line"/>
      <point x="179" y="-250" type="line"/>
      <point x="190" y="-47" type="line"/>
      <point x="157" y="-47" type="line"/>
    </contour>
  </outline>
</glyph>
<glyph name="breve" format="2">
  <advance width="351"/>
  <unicode hex="02D8"/>
  <anchor x="190" y="517" name="_top"/>
  <outline>
    <contour>
      <point x="227" y="588" type="curve" smooth="yes"/>
      <point x="280" y="588"/>
      <point x="324" y="629"/>
      <point x="339" y="747" type="curve"/>
      <point x="317" y="747" type="line"/>
      <point x="303" y="686"/>
      <point x="281" y="657"/>
      <point x="234" y="657" type="curve" smooth="yes"/>
      <point x="185" y="657"/>
      <point x="171" y="692"/>
      <point x="172" y="747" type="curve"/>
      <point x="150" y="747" type="line"/>
      <point x="149" y="741"/>
      <point x="147" y="729"/>
      <point x="147" y="721" type="curve" smooth="yes"/>
      <point x="142" y="640"/>
      <point x="171" y="588"/>
    </contour>
  </outline>
</glyph>
<glyph name="ring" format="2">
  <advance width="351"/>
  <unicode hex="02DA"/>
  <anchor x="195" y="526" name="_top"/>
  <outline>
    <contour>
      <point x="224" y="606" type="curve" smooth="yes"/>
      <point x="203" y="606"/>
      <point x="191" y="630"/>
      <point x="193" y="673" type="curve" smooth="yes"/>
      <point x="196" y="720"/>
      <point x="213" y="754"/>
      <point x="239" y="754" type="curve" smooth="yes"/>
      <point x="260" y="754"/>
      <point x="271" y="729"/>
      <point x="269" y="687" type="curve" smooth="yes"/>
      <point x="267" y="640"/>
      <point x="249" y="606"/>
    </contour>
    <contour>
      <point x="222" y="581" type="curve" smooth="yes"/>
      <point x="269" y="581"/>
      <point x="311" y="617"/>
      <point x="315" y="686" type="curve" smooth="yes"/>
      <point x="318" y="745"/>
      <point x="282" y="778"/>
      <point x="239" y="778" type="curve" smooth="yes"/>
      <point x="193" y="778"/>
      <point x="151" y="742"/>
      <point x="147" y="674" type="curve" smooth="yes"/>
      <point x="144" y="614"/>
      <point x="180" y="581"/>
    </contour>
  </outline>
</glyph>
<glyph name="ogonek" format="2">
  <advance width="422"/>
  <unicode hex="02DB"/>
  <anchor x="254" y="9" name="_right"/>
  <outline>
    <contour>
      <point x="320" y="32" type="line"/>
      <point x="221" y="-34"/>
      <point x="153" y="-81"/>
      <point x="149" y="-155" type="curve" smooth="yes"/>
      <point x="146" y="-207"/>
      <point x="176" y="-237"/>
      <point x="220" y="-237" type="curve" smooth="yes"/>
      <point x="258" y="-237"/>
      <point x="284" y="-217"/>
      <point x="303" y="-191" type="curve"/>
      <point x="293" y="-170" type="line"/>
      <point x="281" y="-187"/>
      <point x="267" y="-200"/>
      <point x="248" y="-200" type="curve" smooth="yes"/>
      <point x="230" y="-200"/>
      <point x="215" y="-184"/>
      <point x="217" y="-151" type="curve" smooth="yes"/>
      <point x="220" y="-100"/>
      <point x="244" y="-54"/>
      <point x="327" y="16" type="curve"/>
    </contour>
  </outline>
</glyph>
<glyph name="tilde" format="2">
  <advance width="351"/>
  <unicode hex="02DC"/>
  <anchor x="192" y="516" name="_top"/>
  <outline>
    <contour>
      <point x="271" y="609" type="curve" smooth="yes"/>
      <point x="307" y="609"/>
      <point x="333" y="651"/>
      <point x="353" y="730" type="curve"/>
      <point x="334" y="743" type="line"/>
      <point x="321" y="700"/>
      <point x="309" y="672"/>
      <point x="290" y="672" type="curve" smooth="yes"/>
      <point x="261" y="672"/>
      <point x="239" y="740"/>
      <point x="201" y="740" type="curve" smooth="yes"/>
      <point x="161" y="740"/>
      <point x="136" y="699"/>
      <point x="115" y="616" type="curve"/>
      <point x="135" y="605" type="line"/>
      <point x="146" y="652"/>
      <point x="160" y="678"/>
      <point x="179" y="678" type="curve" smooth="yes"/>
      <point x="204" y="678"/>
      <point x="227" y="609"/>
    </contour>
  </outline>
</glyph>
<glyph name="Delta" format="2">
  <advance width="517"/>
  <unicode hex="0394"/>
  <outline>
    <contour>
      <point x="-4" y="0" type="line"/>
      <point x="453" y="0" type="line"/>
      <point x="468" y="80" type="line"/>
      <point x="385" y="710" type="line"/>
      <point x="314" y="710" type="line"/>
      <point x="11" y="80" type="line"/>
    </contour>
    <contour>
      <point x="390" y="49" type="line"/>
      <point x="423" y="86" type="line"/>
      <point x="37" y="86" type="line"/>
      <point x="28" y="49" type="line"/>
      <point x="333" y="694" type="line"/>
      <point x="309" y="694" type="line"/>
    </contour>
  </outline>
</glyph>
<glyph name="mu" format="2">
  <advance width="459"/>
  <unicode hex="03BC"/>
  <outline>
    <contour>
      <point x="330" y="-10" type="curve" smooth="yes"/>
      <point x="372" y="-10"/>
      <point x="406" y="21"/>
      <point x="431" y="68" type="curve"/>
      <point x="416" y="85" type="line"/>
      <point x="396" y="48"/>
      <point x="376" y="28"/>
      <point x="356" y="28" type="curve" smooth="yes"/>
      <point x="342" y="28"/>
      <point x="336" y="37"/>
      <point x="337" y="54" type="curve" smooth="yes"/>
      <point x="337" y="63"/>
      <point x="339" y="79"/>
      <point x="342" y="98" type="curve" smooth="yes"/>
      <point x="416" y="518" type="line"/>
      <point x="337" y="518" type="line"/>
      <point x="269" y="139" type="line"/>
      <point x="274" y="127" type="line"/>
      <point x="269" y="107"/>
      <point x="267" y="89"/>
      <point x="266" y="73" type="curve" smooth="yes"/>
      <point x="263" y="15"/>
      <point x="292" y="-10"/>
    </contour>
    <contour>
      <point x="-17" y="-250" type="line"/>
      <point x="64" y="-250" type="line"/>
      <point x="84" y="-126"/>
      <point x="45" y="-53"/>
      <point x="68" y="116" type="curve"/>
      <point x="61" y="106" type="line"/>
      <point x="62" y="24"/>
      <point x="89" y="-10"/>
      <point x="142" y="-10" type="curve" smooth="yes"/>
      <point x="207" y="-10"/>
      <point x="251" y="65"/>
      <point x="303" y="185" type="curve"/>
      <point x="292" y="207" type="line"/>
      <point x="251" y="99"/>
      <point x="214" y="30"/>
      <point x="165" y="30" type="curve" smooth="yes"/>
      <point x="139" y="30"/>
      <point x="125" y="51"/>
      <point x="127" y="103" type="curve" smooth="yes"/>
      <point x="128" y="116"/>
      <point x="130" y="132"/>
      <point x="133" y="151" type="curve" smooth="yes"/>
      <point x="199" y="518" type="line"/>
      <point x="120" y="518" type="line"/>
    </contour>
  </outline>
</glyph>
<glyph name="ohorntilde" format="2">
  <advance width="410"/>
  <unicode hex="1EE1"/>
  <outline>
    <contour>
      <point x="294" y="609" type="curve" smooth="yes"/>
      <point x="330" y="609"/>
      <point x="356" y="651"/>
      <point x="376" y="730" type="curve"/>
      <point x="357" y="743" type="line"/>
      <point x="344" y="700"/>
      <point x="333" y="672"/>
      <point x="312" y="672" type="curve" smooth="yes"/>
      <point x="286" y="672"/>
      <point x="266" y="740"/>
      <point x="230" y="740" type="curve" smooth="yes"/>
      <point x="190" y="740"/>
      <point x="166" y="699"/>
      <point x="146" y="616" type="curve"/>
      <point x="165" y="605" type="line"/>
      <point x="176" y="652"/>
      <point x="190" y="678"/>
      <point x="209" y="678" type="curve" smooth="yes"/>
      <point x="233" y="678"/>
      <point x="254" y="609"/>
    </contour>
    <component base="ohorn"/>
  </outline>
</glyph>
<glyph name="quoteright" format="2">
  <advance width="139"/>
  <unicode hex="2019"/>
  <outline>
    <contour>
      <point x="102" y="498" type="line"/>
      <point x="144" y="537"/>
      <point x="184" y="593"/>
      <point x="187" y="654" type="curve" smooth="yes"/>
      <point x="190" y="699"/>
      <point x="171" y="720"/>
      <point x="144" y="720" type="curve" smooth="yes"/>
      <point x="119" y="720"/>
      <point x="100" y="698"/>
      <point x="98" y="667" type="curve" smooth="yes"/>
      <point x="96" y="634"/>
      <point x="113" y="613"/>
      <point x="134" y="613" type="curve" smooth="yes"/>
      <point x="152" y="613"/>
      <point x="163" y="619"/>
      <point x="172" y="641" type="curve"/>
      <point x="161" y="639" type="line"/>
      <point x="149" y="591"/>
      <point x="119" y="562"/>
      <point x="77" y="529" type="curve"/>
    </contour>
  </outline>
</glyph>
<glyph name="daggerdbl" format="2">
  <advance width="329"/>
  <unicode hex="2021"/>
  <outline>
    <contour>
      <point x="11" y="140" type="line"/>
      <point x="26" y="140" type="line"/>
      <point x="149" y="181" type="line"/>
      <point x="166" y="181" type="line"/>
      <point x="275" y="140" type="line"/>
      <point x="290" y="140" type="line"/>
      <point x="313" y="261" type="line"/>
      <point x="297" y="261" type="line"/>
      <point x="170" y="195" type="line"/>
      <point x="152" y="195" type="line"/>
      <point x="49" y="261" type="line"/>
      <point x="34" y="261" type="line"/>
    </contour>
    <contour>
      <point x="136" y="333" type="line"/>
      <point x="152" y="301"/>
      <point x="162" y="258"/>
      <point x="150" y="190" type="curve"/>
      <point x="136" y="114"/>
      <point x="93" y="62"/>
      <point x="86" y="25" type="curve" smooth="yes"/>
      <point x="81" y="0" type="line"/>
      <point x="171" y="0" type="line"/>
      <point x="175" y="25" type="line" smooth="yes"/>
      <point x="182" y="62"/>
      <point x="157" y="114"/>
      <point x="171" y="190" type="curve"/>
      <point x="183" y="258"/>
      <point x="207" y="301"/>
      <point x="233" y="333" type="curve"/>
      <point x="241" y="377" type="line"/>
      <point x="226" y="410"/>
      <point x="217" y="452"/>
      <point x="228" y="520" type="curve"/>
      <point x="241" y="596"/>
      <point x="286" y="648"/>
      <point x="292" y="685" type="curve" smooth="yes"/>
      <point x="297" y="710" type="line"/>
      <point x="207" y="710" type="line"/>
      <point x="203" y="685" type="line" smooth="yes"/>
      <point x="196" y="648"/>
      <point x="221" y="596"/>
      <point x="207" y="520" type="curve"/>
      <point x="196" y="452"/>
      <point x="170" y="410"/>
      <point x="145" y="377" type="curve"/>
    </contour>
    <contour>
      <point x="67" y="449" type="line"/>
      <point x="82" y="449" type="line"/>
      <point x="209" y="515" type="line"/>
      <point x="226" y="515" type="line"/>
      <point x="331" y="449" type="line"/>
      <point x="346" y="449" type="line"/>
      <point x="367" y="570" type="line"/>
      <point x="352" y="570" type="line"/>
      <point x="229" y="529" type="line"/>
      <point x="212" y="529" type="line"/>
      <point x="103" y="570" type="line"/>
      <point x="88" y="570" type="line"/>
    </contour>
  </outline>
</glyph>
<glyph name="peseta" format="2">
  <advance width="393"/>
  <unicode hex="20A7"/>
  <outline>
    <contour>
      <point x="-30" y="0" type="line"/>
      <point x="105" y="0" type="line"/>
      <point x="110" y="31" type="line"/>
      <point x="103" y="31" type="line" smooth="yes"/>
      <point x="92" y="31"/>
      <point x="72" y="34"/>
      <point x="73" y="41" type="curve" smooth="yes"/>
      <point x="110" y="255" type="line"/>
      <point x="130" y="255" type="line" smooth="yes"/>
      <point x="234" y="255"/>
      <point x="293" y="402"/>
      <point x="300" y="528" type="curve" smooth="yes"/>
      <point x="306" y="640"/>
      <point x="266" y="710"/>
      <point x="190" y="710" type="curve" smooth="yes"/>
      <point x="95" y="710" type="line"/>
      <point x="90" y="679" type="line"/>
      <point x="93" y="679" type="line" smooth="yes"/>
      <point x="107" y="679"/>
      <point x="115" y="673"/>
      <point x="111" y="644" type="curve" smooth="yes"/>
      <point x="9" y="66" type="line" smooth="yes"/>
      <point x="5" y="37"/>
      <point x="-6" y="31"/>
      <point x="-20" y="31" type="curve" smooth="yes"/>
      <point x="-23" y="31" type="line"/>
    </contour>
    <contour>
      <point x="187" y="677" type="line" smooth="yes"/>
      <point x="223" y="677"/>
      <point x="241" y="640"/>
      <point x="235" y="540" type="curve" smooth="yes"/>
      <point x="234" y="515"/>
      <point x="230" y="486"/>
      <point x="225" y="457" type="curve" smooth="yes"/>
      <point x="208" y="369"/>
      <point x="178" y="288"/>
      <point x="133" y="288" type="curve" smooth="yes"/>
      <point x="116" y="288" type="line"/>
      <point x="184" y="677" type="line"/>
    </contour>
    <contour>
      <point x="327" y="512" type="line"/>
      <point x="263" y="150" type="line" smooth="yes"/>
      <point x="257" y="112"/>
      <point x="255" y="98"/>
      <point x="254" y="85" type="curve"/>
      <point x="251" y="12"/>
      <point x="279" y="-10"/>
      <point x="323" y="-10" type="curve" smooth="yes"/>
      <point x="336" y="-10"/>
      <point x="348" y="-6"/>
      <point x="356" y="-2" type="curve"/>
      <point x="360" y="26" type="line"/>
      <point x="357" y="25"/>
      <point x="352" y="21"/>
      <point x="342" y="21" type="curve" smooth="yes"/>
      <point x="323" y="21"/>
      <point x="315" y="37"/>
      <point x="317" y="71" type="curve" smooth="yes"/>
      <point x="317" y="80"/>
      <point x="320" y="98"/>
      <point x="326" y="130" type="curve" smooth="yes"/>
      <point x="418" y="648" type="line"/>
      <point x="374" y="648" type="line"/>
      <point x="364" y="601" type="line" smooth="yes"/>
      <point x="353" y="538"/>
      <point x="325" y="511"/>
      <point x="285" y="511" type="curve" smooth="yes"/>
      <point x="275" y="511" type="line"/>
      <point x="270" y="486" type="line"/>
      <point x="441" y="486" type="line"/>
      <point x="448" y="518" type="line"/>
      <point x="370" y="518" type="line"/>
    </contour>
  </outline>
</glyph>
<glyph name="uni20B4" format="2">
  <advance width="393"/>
  <unicode hex="20B4"/>
  <outline>
    <contour>
      <point x="21" y="272" type="line"/>
      <point x="387" y="272" type="line"/>
      <point x="394" y="305" type="line"/>
      <point x="27" y="305" type="line"/>
    </contour>
    <contour>
      <point x="47" y="422" type="line"/>
      <point x="414" y="422" type="line"/>
      <point x="421" y="455" type="line"/>
      <point x="53" y="455" type="line"/>
    </contour>
    <contour>
      <point x="183" y="-10" type="curve" smooth="yes"/>
      <point x="247" y="-10"/>
      <point x="297" y="18"/>
      <point x="326" y="55" type="curve"/>
      <point x="346" y="164" type="line"/>
      <point x="275" y="164" type="line"/>
      <point x="251" y="32" type="line"/>
      <point x="270" y="32"/>
      <point x="294" y="84"/>
      <point x="293" y="88" type="curve"/>
      <point x="264" y="41"/>
      <point x="235" y="21"/>
      <point x="191" y="21" type="curve" smooth="yes"/>
      <point x="138" y="21"/>
      <point x="111" y="74"/>
      <point x="115" y="153" type="curve" smooth="yes"/>
      <point x="118" y="205"/>
      <point x="135" y="252"/>
      <point x="171" y="278" type="curve"/>
      <point x="84" y="277" type="line"/>
      <point x="57" y="245"/>
      <point x="43" y="205"/>
      <point x="41" y="163" type="curve" smooth="yes"/>
      <point x="35" y="58"/>
      <point x="91" y="-10"/>
    </contour>
    <contour>
      <point x="358" y="443" type="line"/>
      <point x="387" y="474"/>
      <point x="404" y="520"/>
      <point x="407" y="565" type="curve" smooth="yes"/>
      <point x="411" y="656"/>
      <point x="368" y="720"/>
      <point x="277" y="720" type="curve" smooth="yes"/>
      <point x="216" y="720"/>
      <point x="167" y="689"/>
      <point x="144" y="663" type="curve"/>
      <point x="128" y="570" type="line"/>
      <point x="197" y="570" type="line"/>
      <point x="215" y="684" type="line"/>
      <point x="199" y="684"/>
      <point x="177" y="659"/>
      <point x="177" y="627" type="curve"/>
      <point x="200" y="665"/>
      <point x="230" y="689"/>
      <point x="269" y="689" type="curve" smooth="yes"/>
      <point x="320" y="689"/>
      <point x="341" y="642"/>
      <point x="338" y="586" type="curve" smooth="yes"/>
      <point x="335" y="527"/>
      <point x="312" y="474"/>
      <point x="269" y="444" type="curve"/>
    </contour>
  </outline>
</glyph>
<glyph name="uni20B8" format="2">
  <advance width="393"/>
  <unicode hex="20B8"/>
  <outline>
    <contour>
      <point x="130" y="68" type="line" smooth="yes"/>
      <point x="124" y="37"/>
      <point x="97" y="31"/>
      <point x="70" y="31" type="curve" smooth="yes"/>
      <point x="60" y="31" type="line"/>
      <point x="54" y="0" type="line"/>
      <point x="260" y="0" type="line"/>
      <point x="265" y="31" type="line"/>
      <point x="254" y="31" type="line" smooth="yes"/>
      <point x="226" y="31"/>
      <point x="203" y="37"/>
      <point x="209" y="68" type="curve" smooth="yes"/>
      <point x="291" y="529" type="line"/>
      <point x="324" y="529" type="line" smooth="yes"/>
      <point x="377" y="529"/>
      <point x="391" y="516"/>
      <point x="389" y="474" type="curve" smooth="yes"/>
      <point x="384" y="381" type="line"/>
      <point x="406" y="381" type="line"/>
      <point x="440" y="564" type="line"/>
      <point x="74" y="564" type="line"/>
      <point x="41" y="381" type="line"/>
      <point x="63" y="381" type="line"/>
      <point x="93" y="469" type="line" smooth="yes"/>
      <point x="108" y="515"/>
      <point x="127" y="529"/>
      <point x="175" y="529" type="curve" smooth="yes"/>
      <point x="211" y="529" type="line"/>
    </contour>
    <contour>
      <point x="100" y="710" type="line"/>
      <point x="94" y="677" type="line"/>
      <point x="458" y="677" type="line"/>
      <point x="465" y="710" type="line"/>
    </contour>
  </outline>
</glyph>
<glyph name="numero" format="2">
  <advance width="831"/>
  <unicode hex="2116"/>
  <outline>
    <contour>
      <point x="565" y="238" type="line"/>
      <point x="805" y="238" type="line"/>
      <point x="799" y="202" type="line"/>
      <point x="559" y="202" type="line"/>
    </contour>
    <component base="N"/>
    <component base="ordmasculine" xOffset="516"/>
  </outline>
</glyph>
<glyph name="estimated" format="2">
  <advance width="590"/>
  <unicode hex="212E"/>
  <outline>
    <contour>
      <point x="138" y="131" type="line"/>
      <point x="174" y="58"/>
      <point x="231" y="25"/>
      <point x="299" y="25" type="curve" smooth="yes"/>
      <point x="404" y="25"/>
      <point x="487" y="106"/>
      <point x="531" y="236" type="curve"/>
      <point x="559" y="236" type="line"/>
      <point x="516" y="98"/>
      <point x="420" y="-10"/>
      <point x="297" y="-10" type="curve" smooth="yes"/>
      <point x="150" y="-10"/>
      <point x="46" y="150"/>
      <point x="57" y="355" type="curve" smooth="yes"/>
      <point x="67" y="560"/>
      <point x="189" y="720"/>
      <point x="336" y="720" type="curve" smooth="yes"/>
      <point x="483" y="720"/>
      <point x="587" y="560"/>
      <point x="577" y="355" type="curve"/>
      <point x="120" y="355" type="line"/>
      <point x="121" y="390" type="line"/>
      <point x="485" y="390" type="line"/>
      <point x="495" y="581" type="line"/>
      <point x="459" y="650"/>
      <point x="402" y="685"/>
      <point x="334" y="685" type="curve" smooth="yes"/>
      <point x="266" y="685"/>
      <point x="204" y="648"/>
      <point x="161" y="580" type="curve"/>
    </contour>
  </outline>
</glyph>
<glyph name="emptyset" format="2">
  <advance width="490"/>
  <unicode hex="2205"/>
  <outline>
    <contour>
      <point x="234" y="24" type="curve" smooth="yes"/>
      <point x="149" y="24"/>
      <point x="80" y="114"/>
      <point x="87" y="256" type="curve" smooth="yes"/>
      <point x="95" y="410"/>
      <point x="183" y="524"/>
      <point x="284" y="524" type="curve" smooth="yes"/>
      <point x="369" y="524"/>
      <point x="438" y="435"/>
      <point x="430" y="292" type="curve" smooth="yes"/>
      <point x="422" y="139"/>
      <point x="335" y="24"/>
    </contour>
    <contour>
      <point x="230" y="-10" type="curve" smooth="yes"/>
      <point x="348" y="-10"/>
      <point x="449" y="124"/>
      <point x="458" y="292" type="curve" smooth="yes"/>
      <point x="467" y="454"/>
      <point x="384" y="558"/>
      <point x="288" y="558" type="curve" smooth="yes"/>
      <point x="168" y="558"/>
      <point x="67" y="428"/>
      <point x="58" y="256" type="curve" smooth="yes"/>
      <point x="50" y="95"/>
      <point x="134" y="-10"/>
    </contour>
    <contour>
      <point x="9" y="-40" type="line"/>
      <point x="526" y="560" type="line"/>
      <point x="512" y="586" type="line"/>
      <point x="-6" y="-15" type="line"/>
    </contour>
  </outline>
</glyph>
<glyph name="minus" format="2">
  <advance width="397"/>
  <unicode hex="2212"/>
  <outline>
    <contour>
      <point x="372" y="357" type="line"/>
      <point x="74" y="357" type="line"/>
      <point x="69" y="325" type="line"/>
      <point x="366" y="325" type="line"/>
    </contour>
  </outline>
</glyph>
<glyph name="infinity" format="2">
  <advance width="545"/>
  <unicode hex="221E"/>
  <outline>
    <contour>
      <point x="261" y="336" type="curve" smooth="yes"/>
      <point x="245" y="442"/>
      <point x="220" y="484"/>
      <point x="171" y="484" type="curve" smooth="yes"/>
      <point x="115" y="484"/>
      <point x="85" y="418"/>
      <point x="81" y="347" type="curve" smooth="yes"/>
      <point x="77" y="271"/>
      <point x="106" y="221"/>
      <point x="156" y="221" type="curve" smooth="yes"/>
      <point x="211" y="221"/>
      <point x="250" y="273"/>
      <point x="276" y="341" type="curve"/>
      <point x="291" y="339" type="line"/>
      <point x="257" y="232"/>
      <point x="207" y="153"/>
      <point x="149" y="153" type="curve" smooth="yes"/>
      <point x="89" y="153"/>
      <point x="48" y="225"/>
      <point x="54" y="338" type="curve" smooth="yes"/>
      <point x="60" y="464"/>
      <point x="124" y="556"/>
      <point x="204" y="556" type="curve" smooth="yes"/>
      <point x="290" y="556"/>
      <point x="313" y="475"/>
      <point x="330" y="375" type="curve" smooth="yes"/>
      <point x="348" y="260"/>
      <point x="370" y="225"/>
      <point x="417" y="225" type="curve" smooth="yes"/>
      <point x="467" y="225"/>
      <point x="505" y="287"/>
      <point x="509" y="368" type="curve" smooth="yes"/>
      <point x="513" y="443"/>
      <point x="485" y="488"/>
      <point x="434" y="488" type="curve" smooth="yes"/>
      <point x="383" y="488"/>
      <point x="339" y="436"/>
      <point x="312" y="367" type="curve"/>
      <point x="299" y="370" type="line"/>
      <point x="338" y="489"/>
      <point x="387" y="556"/>
      <point x="446" y="556" type="curve" smooth="yes"/>
      <point x="510" y="556"/>
      <point x="542" y="476"/>
      <point x="537" y="379" type="curve" smooth="yes"/>
      <point x="530" y="244"/>
      <point x="468" y="153"/>
      <point x="391" y="153" type="curve" smooth="yes"/>
      <point x="310" y="153"/>
      <point x="278" y="220"/>
    </contour>
  </outline>
</glyph>
<glyph name="approxequal" format="2">
  <advance width="393"/>
  <unicode hex="2248"/>
  <outline>
    <contour>
      <point x="268" y="163" type="curve" smooth="yes"/>
      <point x="221" y="163"/>
      <point x="197" y="246"/>
      <point x="142" y="246" type="curve" smooth="yes"/>
      <point x="92" y="246"/>
      <point x="64" y="191"/>
      <point x="52" y="124" type="curve"/>
      <point x="74" y="114" type="line"/>
      <point x="82" y="157"/>
      <point x="96" y="207"/>
      <point x="133" y="207" type="curve" smooth="yes"/>
      <point x="176" y="207"/>
      <point x="205" y="124"/>
      <point x="256" y="124" type="curve" smooth="yes"/>
      <point x="306" y="124"/>
      <point x="334" y="182"/>
      <point x="350" y="243" type="curve"/>
      <point x="326" y="253" type="line"/>
      <point x="316" y="215"/>
      <point x="300" y="163"/>
    </contour>
    <contour>
      <point x="295" y="372" type="curve" smooth="yes"/>
      <point x="248" y="372"/>
      <point x="225" y="455"/>
      <point x="170" y="455" type="curve" smooth="yes"/>
      <point x="120" y="455"/>
      <point x="92" y="400"/>
      <point x="79" y="333" type="curve"/>
      <point x="102" y="323" type="line"/>
      <point x="110" y="366"/>
      <point x="124" y="416"/>
      <point x="161" y="416" type="curve" smooth="yes"/>
      <point x="203" y="416"/>
      <point x="233" y="333"/>
      <point x="283" y="333" type="curve" smooth="yes"/>
      <point x="333" y="333"/>
      <point x="360" y="391"/>
      <point x="378" y="452" type="curve"/>
      <point x="354" y="462" type="line"/>
      <point x="344" y="424"/>
      <point x="327" y="372"/>
    </contour>
  </outline>
</glyph>
<glyph name="notequal" format="2">
  <advance width="393"/>
  <unicode hex="2260"/>
  <outline>
    <contour>
      <point x="354" y="568" type="line"/>
      <point x="44" y="87" type="line"/>
      <point x="76" y="87" type="line"/>
      <point x="386" y="568" type="line"/>
    </contour>
    <component base="equal" xOffset="1" yOffset="1"/>
  </outline>
</glyph>
<glyph name="hook" format="2">
  <advance width="359"/>
  <unicode hex="2440"/>
  <anchor x="189" y="517" name="_top"/>
  <outline>
    <contour>
      <point x="119" y="706" type="line"/>
      <point x="130" y="757"/>
      <point x="158" y="789"/>
      <point x="214" y="789" type="curve" smooth="yes"/>
      <point x="268" y="789"/>
      <point x="296" y="757"/>
      <point x="293" y="708" type="curve" smooth="yes"/>
      <point x="291" y="659"/>
      <point x="253" y="617"/>
      <point x="183" y="609" type="curve"/>
      <point x="199" y="634" type="line"/>
      <point x="189" y="578" type="line"/>
      <point x="161" y="578" type="line"/>
      <point x="171" y="632" type="line"/>
      <point x="212" y="639"/>
      <point x="235" y="659"/>
      <point x="237" y="706" type="curve" smooth="yes"/>
      <point x="239" y="738"/>
      <point x="230" y="758"/>
      <point x="207" y="758" type="curve" smooth="yes"/>
      <point x="183" y="758"/>
      <point x="171" y="736"/>
      <point x="164" y="706" type="curve"/>
    </contour>
  </outline>
</glyph>
<glyph name="uni27F7" format="2">
  <advance width="913"/>
  <unicode hex="27F7"/>
  <outline>
    <contour>
      <point x="755" y="335" type="line"/>
      <point x="666" y="192" type="line"/>
      <point x="673" y="179" type="line"/>
      <point x="892" y="346" type="line"/>
      <point x="893" y="360" type="line"/>
      <point x="692" y="527" type="line"/>
      <point x="683" y="514" type="line"/>
      <point x="756" y="371" type="line"/>
      <point x="195" y="371" type="line"/>
      <point x="283" y="514" type="line"/>
      <point x="277" y="527" type="line"/>
      <point x="58" y="360" type="line"/>
      <point x="57" y="346" type="line"/>
      <point x="258" y="179" type="line"/>
      <point x="266" y="192" type="line"/>
      <point x="194" y="335" type="line"/>
    </contour>
  </outline>
</glyph>
<glyph name="three.den" format="2">
  <advance width="232"/>
  <unicode hex="E405"/>
  <outline>
    <contour>
      <point x="118" y="323" type="curve" smooth="yes"/>
      <point x="96" y="323"/>
      <point x="78" y="306"/>
      <point x="64" y="277" type="curve"/>
      <point x="68" y="304"/>
      <point x="78" y="328"/>
      <point x="89" y="329" type="curve"/>
      <point x="78" y="252" type="line"/>
      <point x="30" y="252" type="line"/>
      <point x="39" y="307" type="line"/>
      <point x="58" y="332"/>
      <point x="89" y="349"/>
      <point x="125" y="349" type="curve" smooth="yes"/>
      <point x="178" y="349"/>
      <point x="212" y="318"/>
      <point x="209" y="268" type="curve" smooth="yes"/>
      <point x="206" y="214"/>
      <point x="162" y="179"/>
      <point x="106" y="181" type="curve"/>
      <point x="100" y="191" type="line"/>
      <point x="171" y="188"/>
      <point x="196" y="145"/>
      <point x="193" y="96" type="curve" smooth="yes"/>
      <point x="190" y="31"/>
      <point x="144" y="-6"/>
      <point x="83" y="-6" type="curve" smooth="yes"/>
      <point x="24" y="-6"/>
      <point x="-6" y="32"/>
      <point x="-13" y="87" type="curve"/>
      <point x="5" y="99" type="line"/>
      <point x="11" y="54"/>
      <point x="29" y="21"/>
      <point x="76" y="21" type="curve" smooth="yes"/>
      <point x="108" y="21"/>
      <point x="130" y="52"/>
      <point x="132" y="102" type="curve" smooth="yes"/>
      <point x="134" y="142"/>
      <point x="122" y="169"/>
      <point x="82" y="169" type="curve" smooth="yes"/>
      <point x="66" y="169" type="line"/>
      <point x="69" y="194" type="line"/>
      <point x="88" y="194" type="line" smooth="yes"/>
      <point x="131" y="194"/>
      <point x="148" y="222"/>
      <point x="150" y="267" type="curve" smooth="yes"/>
      <point x="152" y="298"/>
      <point x="144" y="323"/>
    </contour>
  </outline>
</glyph>
<glyph name="OE.alt" format="2">
  <advance width="702"/>
  <outline>
    <contour>
      <point x="440" y="380" type="line"/>
      <point x="434" y="346" type="line"/>
      <point x="549" y="346" type="line" smooth="yes"/>
      <point x="573" y="346"/>
      <point x="574" y="316"/>
      <point x="567" y="278" type="curve" smooth="yes"/>
      <point x="565" y="272" type="line"/>
      <point x="588" y="272" type="line"/>
      <point x="621" y="454" type="line"/>
      <point x="598" y="454" type="line"/>
      <point x="596" y="448" type="line" smooth="yes"/>
      <point x="591" y="415"/>
      <point x="581" y="380"/>
      <point x="557" y="380" type="curve" smooth="yes"/>
    </contour>
    <contour>
      <point x="665" y="206" type="line"/>
      <point x="640" y="206" type="line"/>
      <point x="605" y="93" type="line" smooth="yes"/>
      <point x="592" y="49"/>
      <point x="567" y="35"/>
      <point x="508" y="35" type="curve" smooth="yes"/>
      <point x="402" y="35" type="line"/>
      <point x="514" y="675" type="line"/>
      <point x="603" y="675" type="line" smooth="yes"/>
      <point x="660" y="675"/>
      <point x="681" y="661"/>
      <point x="679" y="620" type="curve"/>
      <point x="678" y="529" type="line"/>
      <point x="702" y="529" type="line"/>
      <point x="732" y="710" type="line"/>
      <point x="380" y="710" type="line" smooth="yes"/>
      <point x="179" y="710"/>
      <point x="53" y="540"/>
      <point x="42" y="317" type="curve" smooth="yes"/>
      <point x="31" y="118"/>
      <point x="127" y="0"/>
      <point x="281" y="0" type="curve" smooth="yes"/>
      <point x="628" y="0" type="line"/>
    </contour>
    <contour>
      <point x="290" y="35" type="line" smooth="yes"/>
      <point x="171" y="35"/>
      <point x="120" y="130"/>
      <point x="129" y="304" type="curve" smooth="yes"/>
      <point x="141" y="534"/>
      <point x="236" y="675"/>
      <point x="377" y="675" type="curve" smooth="yes"/>
      <point x="431" y="675" type="line"/>
      <point x="320" y="35" type="line"/>
    </contour>
  </outline>
</glyph>
<glyph name="blackrightpointingtriangle" format="2">
  <advance width="402"/>
  <outline>
    <contour>
      <point x="93" y="10" type="line"/>
      <point x="368" y="277" type="line"/>
      <point x="121" y="545" type="line"/>
    </contour>
  </outline>
</glyph>
<glyph name="braceleft.uc" format="2">
  <advance width="227"/>
  <outline>
    <contour>
      <point x="21" y="65" type="curve" smooth="yes"/>
      <point x="17" y="-20"/>
      <point x="67" y="-60"/>
      <point x="163" y="-62" type="curve"/>
      <point x="164" y="-62"/>
      <point x="166" y="-62"/>
      <point x="168" y="-62" type="curve"/>
      <point x="174" y="-35" type="line"/>
      <point x="174" y="-35"/>
      <point x="175" y="-35"/>
      <point x="174" y="-35" type="curve"/>
      <point x="103" y="-30"/>
      <point x="78" y="0"/>
      <point x="81" y="64" type="curve" smooth="yes"/>
      <point x="86" y="148"/>
      <point x="173" y="248"/>
      <point x="175" y="289" type="curve" smooth="yes"/>
      <point x="177" y="318"/>
      <point x="159" y="332"/>
      <point x="85" y="358" type="curve"/>
      <point x="85" y="363" type="line"/>
      <point x="183" y="382"/>
      <point x="196" y="394"/>
      <point x="197" y="427" type="curve" smooth="yes"/>
      <point x="199" y="459"/>
      <point x="173" y="561"/>
      <point x="177" y="621" type="curve" smooth="yes"/>
      <point x="180" y="688"/>
      <point x="209" y="728"/>
      <point x="292" y="734" type="curve"/>
      <point x="293" y="734"/>
      <point x="294" y="734"/>
      <point x="294" y="734" type="curve"/>
      <point x="294" y="761" type="line"/>
      <point x="291" y="762"/>
      <point x="288" y="762"/>
      <point x="286" y="762" type="curve"/>
      <point x="187" y="760"/>
      <point x="121" y="717"/>
      <point x="116" y="624" type="curve" smooth="yes"/>
      <point x="112" y="560"/>
      <point x="142" y="479"/>
      <point x="162" y="395" type="curve"/>
      <point x="170" y="420" type="line"/>
      <point x="52" y="377" type="line"/>
      <point x="47" y="351" type="line"/>
      <point x="151" y="289" type="line"/>
      <point x="150" y="314" type="line"/>
      <point x="95" y="226"/>
      <point x="26" y="149"/>
    </contour>
  </outline>
</glyph>
<glyph name="breve.uc" format="2">
  <advance width="351"/>
  <anchor x="198" y="694" name="_top"/>
  <outline>
    <contour>
      <point x="241" y="759" type="curve" smooth="yes"/>
      <point x="187" y="759"/>
      <point x="155" y="808"/>
      <point x="159" y="886" type="curve" smooth="yes"/>
      <point x="160" y="891"/>
      <point x="161" y="895"/>
      <point x="161" y="900" type="curve"/>
      <point x="183" y="900" type="line"/>
      <point x="183" y="849"/>
      <point x="206" y="831"/>
      <point x="253" y="831" type="curve" smooth="yes"/>
      <point x="293" y="831"/>
      <point x="319" y="855"/>
      <point x="330" y="900" type="curve"/>
      <point x="353" y="900" type="line"/>
      <point x="339" y="807"/>
      <point x="297" y="759"/>
    </contour>
  </outline>
</glyph>
<glyph name="circumflex_acute" format="2">
  <advance width="359"/>
  <anchor x="165" y="558" name="_top"/>
  <outline>
    <contour>
      <point x="376" y="821" type="curve" smooth="yes"/>
      <point x="328" y="710" type="line"/>
      <point x="327" y="697" type="line"/>
      <point x="344" y="697" type="line"/>
      <point x="417" y="771" type="line" smooth="yes"/>
      <point x="445" y="797"/>
      <point x="458" y="816"/>
      <point x="459" y="845" type="curve" smooth="yes"/>
      <point x="460" y="868"/>
      <point x="449" y="884"/>
      <point x="430" y="884" type="curve" smooth="yes"/>
      <point x="408" y="884"/>
      <point x="394" y="865"/>
    </contour>
    <component base="circumflex" xOffset="-7"/>
  </outline>
</glyph>
<glyph name="circumflex_grave.uc" format="2">
  <advance width="359"/>
  <anchor x="187" y="696" name="_top"/>
  <outline>
    <contour>
      <point x="403" y="953" type="line" smooth="yes"/>
      <point x="393" y="985"/>
      <point x="379" y="1001"/>
      <point x="360" y="1001" type="curve" smooth="yes"/>
      <point x="340" y="1001"/>
      <point x="326" y="981"/>
      <point x="325" y="958" type="curve" smooth="yes"/>
      <point x="324" y="932"/>
      <point x="342" y="911"/>
      <point x="367" y="892" type="curve" smooth="yes"/>
      <point x="414" y="853" type="line"/>
      <point x="429" y="853" type="line"/>
      <point x="429" y="866" type="line"/>
    </contour>
    <component base="circumflex.uc"/>
  </outline>
</glyph>
<glyph name="currency.proportional" format="2">
  <advance width="424"/>
  <outline>
    <contour>
      <point x="226" y="178" type="curve"/>
      <point x="310" y="178"/>
      <point x="376" y="270"/>
      <point x="382" y="380" type="curve" smooth="yes"/>
      <point x="387" y="486"/>
      <point x="340" y="569"/>
      <point x="258" y="569" type="curve" smooth="yes"/>
      <point x="175" y="569"/>
      <point x="109" y="477"/>
      <point x="103" y="367" type="curve" smooth="yes"/>
      <point x="98" y="261"/>
      <point x="144" y="178"/>
    </contour>
    <contour>
      <point x="229" y="219" type="curve" smooth="yes"/>
      <point x="169" y="219"/>
      <point x="135" y="283"/>
      <point x="139" y="367" type="curve" smooth="yes"/>
      <point x="145" y="470"/>
      <point x="191" y="528"/>
      <point x="255" y="528" type="curve" smooth="yes"/>
      <point x="316" y="528"/>
      <point x="349" y="464"/>
      <point x="345" y="380" type="curve" smooth="yes"/>
      <point x="340" y="277"/>
      <point x="294" y="219"/>
    </contour>
    <contour>
      <point x="69" y="131" type="line"/>
      <point x="156" y="238" type="line"/>
      <point x="133" y="266" type="line"/>
      <point x="49" y="164" type="line"/>
    </contour>
    <contour>
      <point x="157" y="492" type="line"/>
      <point x="187" y="515" type="line"/>
      <point x="131" y="617" type="line"/>
      <point x="104" y="588" type="line"/>
    </contour>
    <contour>
      <point x="351" y="481" type="line"/>
      <point x="437" y="585" type="line"/>
      <point x="416" y="617" type="line"/>
      <point x="332" y="516" type="line"/>
    </contour>
    <contour>
      <point x="358" y="130" type="line"/>
      <point x="383" y="160" type="line"/>
      <point x="334" y="250" type="line"/>
      <point x="308" y="222" type="line"/>
    </contour>
  </outline>
</glyph>
<glyph name="dblgrave.uc" format="2">
  <advance width="351"/>
  <anchor x="266" y="734" name="_top"/>
  <outline>
    <contour>
      <point x="280" y="851" type="line" smooth="yes"/>
      <point x="272" y="897"/>
      <point x="262" y="915"/>
      <point x="240" y="915" type="curve" smooth="yes"/>
      <point x="222" y="915"/>
      <point x="209" y="899"/>
      <point x="208" y="876" type="curve" smooth="yes"/>
      <point x="206" y="849"/>
      <point x="216" y="832"/>
      <point x="240" y="801" type="curve" smooth="yes"/>
      <point x="275" y="757" type="line"/>
      <point x="293" y="757" type="line"/>
      <point x="293" y="770" type="line"/>
    </contour>
    <contour>
      <point x="167" y="851" type="line" smooth="yes"/>
      <point x="159" y="897"/>
      <point x="149" y="915"/>
      <point x="128" y="915" type="curve" smooth="yes"/>
      <point x="109" y="915"/>
      <point x="96" y="899"/>
      <point x="95" y="876" type="curve" smooth="yes"/>
      <point x="93" y="849"/>
      <point x="103" y="832"/>
      <point x="127" y="801" type="curve" smooth="yes"/>
      <point x="162" y="757" type="line"/>
      <point x="180" y="757" type="line"/>
      <point x="180" y="770" type="line"/>
    </contour>
  </outline>
</glyph>
<glyph name="eight.oldprop" format="2">
  <advance width="407"/>
  <outline>
    <contour>
      <point x="197" y="23" type="curve" smooth="yes"/>
      <point x="137" y="23"/>
      <point x="102" y="81"/>
      <point x="108" y="187" type="curve" smooth="yes"/>
      <point x="109" y="202"/>
      <point x="110" y="216"/>
      <point x="114" y="232" type="curve" smooth="yes"/>
      <point x="128" y="309"/>
      <point x="171" y="361"/>
      <point x="225" y="361" type="curve" smooth="yes"/>
      <point x="286" y="361"/>
      <point x="316" y="301"/>
      <point x="311" y="218" type="curve" smooth="yes"/>
      <point x="310" y="199"/>
      <point x="307" y="181"/>
      <point x="304" y="163" type="curve" smooth="yes"/>
      <point x="289" y="79"/>
      <point x="251" y="23"/>
    </contour>
    <contour>
      <point x="253" y="391" type="curve" smooth="yes"/>
      <point x="205" y="391"/>
      <point x="179" y="440"/>
      <point x="184" y="526" type="curve" smooth="yes"/>
      <point x="184" y="543"/>
      <point x="186" y="560"/>
      <point x="189" y="576" type="curve" smooth="yes"/>
      <point x="203" y="647"/>
      <point x="235" y="687"/>
      <point x="279" y="687" type="curve" smooth="yes"/>
      <point x="325" y="687"/>
      <point x="352" y="640"/>
      <point x="347" y="554" type="curve" smooth="yes"/>
      <point x="346" y="537"/>
      <point x="344" y="521"/>
      <point x="341" y="506" type="curve" smooth="yes"/>
      <point x="328" y="435"/>
      <point x="293" y="391"/>
    </contour>
    <contour>
      <point x="195" y="-10" type="curve" smooth="yes"/>
      <point x="310" y="-10"/>
      <point x="386" y="84"/>
      <point x="392" y="197" type="curve" smooth="yes"/>
      <point x="397" y="293"/>
      <point x="354" y="355"/>
      <point x="283" y="377" type="curve"/>
      <point x="288" y="367" type="line"/>
      <point x="290" y="380" type="line"/>
      <point x="280" y="370" type="line"/>
      <point x="366" y="383"/>
      <point x="417" y="452"/>
      <point x="422" y="545" type="curve" smooth="yes"/>
      <point x="427" y="648"/>
      <point x="369" y="720"/>
      <point x="280" y="720" type="curve" smooth="yes"/>
      <point x="184" y="720"/>
      <point x="114" y="643"/>
      <point x="108" y="542" type="curve" smooth="yes"/>
      <point x="104" y="462"/>
      <point x="140" y="401"/>
      <point x="197" y="378" type="curve"/>
      <point x="192" y="390" type="line"/>
      <point x="189" y="374" type="line"/>
      <point x="199" y="385" type="line"/>
      <point x="101" y="377"/>
      <point x="32" y="307"/>
      <point x="26" y="194" type="curve" smooth="yes"/>
      <point x="20" y="72"/>
      <point x="94" y="-10"/>
    </contour>
  </outline>
</glyph>
<glyph name="f_b" format="2">
  <advance width="642"/>
  <outline>
    <contour>
      <point x="65" y="518" type="line"/>
      <point x="59" y="486" type="line"/>
      <point x="282" y="486" type="line"/>
      <point x="288" y="518" type="line"/>
    </contour>
    <contour>
      <point x="408" y="-10" type="curve" smooth="yes"/>
      <point x="550" y="-10"/>
      <point x="630" y="174"/>
      <point x="638" y="329" type="curve" smooth="yes"/>
      <point x="644" y="448"/>
      <point x="601" y="528"/>
      <point x="532" y="528" type="curve" smooth="yes"/>
      <point x="454" y="528"/>
      <point x="408" y="458"/>
      <point x="356" y="306" type="curve"/>
      <point x="367" y="284" type="line"/>
      <point x="412" y="411"/>
      <point x="446" y="485"/>
      <point x="502" y="485" type="curve" smooth="yes"/>
      <point x="542" y="485"/>
      <point x="561" y="427"/>
      <point x="557" y="342" type="curve" smooth="yes"/>
      <point x="549" y="197"/>
      <point x="494" y="23"/>
      <point x="409" y="23" type="curve" smooth="yes"/>
      <point x="359" y="23"/>
      <point x="325" y="59"/>
      <point x="301" y="125" type="curve"/>
      <point x="298" y="86"/>
      <point x="308" y="54"/>
      <point x="330" y="28" type="curve"/>
      <point x="457" y="750" type="line"/>
      <point x="323" y="750" type="line"/>
      <point x="375" y="725" type="line"/>
      <point x="258" y="61" type="line"/>
      <point x="289" y="20"/>
      <point x="346" y="-10"/>
    </contour>
    <contour>
      <point x="316" y="725" type="curve" smooth="yes"/>
      <point x="351" y="725"/>
      <point x="379" y="706"/>
      <point x="397" y="680" type="curve"/>
      <point x="425" y="725" type="line"/>
      <point x="402" y="745"/>
      <point x="362" y="758"/>
      <point x="316" y="758" type="curve" smooth="yes"/>
      <point x="221" y="758"/>
      <point x="152" y="695"/>
      <point x="136" y="584" type="curve" smooth="yes"/>
      <point x="13" y="-223" type="line"/>
      <point x="78" y="-223" type="line"/>
      <point x="216" y="585" type="line" smooth="yes"/>
      <point x="231" y="683"/>
      <point x="257" y="725"/>
    </contour>
  </outline>
</glyph>
<glyph name="florin" format="2">
  <advance width="393"/>
  <outline>
    <contour>
      <point x="128" y="499" type="line"/>
      <point x="119" y="466" type="line"/>
      <point x="369" y="466" type="line"/>
      <point x="379" y="499" type="line"/>
    </contour>
    <contour>
      <point x="170" y="36" type="curve" smooth="yes"/>
      <point x="290" y="576" type="line" smooth="yes"/>
      <point x="315" y="690"/>
      <point x="341" y="725"/>
      <point x="386" y="725" type="curve" smooth="yes"/>
      <point x="411" y="725"/>
      <point x="431" y="715"/>
      <point x="448" y="703" type="curve"/>
      <point x="455" y="737" type="line"/>
      <point x="439" y="748"/>
      <point x="412" y="758"/>
      <point x="383" y="758" type="curve" smooth="yes"/>
      <point x="300" y="758"/>
      <point x="242" y="700"/>
      <point x="214" y="578" type="curve" smooth="yes"/>
      <point x="94" y="49" type="line" smooth="yes"/>
      <point x="53" y="-147"/>
      <point x="24" y="-203"/>
      <point x="-22" y="-203" type="curve" smooth="yes"/>
      <point x="-48" y="-203"/>
      <point x="-64" y="-188"/>
      <point x="-70" y="-185" type="curve"/>
      <point x="-78" y="-221" type="line"/>
      <point x="-65" y="-229"/>
      <point x="-47" y="-236"/>
      <point x="-22" y="-236" type="curve" smooth="yes"/>
      <point x="66" y="-236"/>
      <point x="130" y="-136"/>
    </contour>
  </outline>
</glyph>
<glyph name="four.lintab" format="2">
  <advance width="393"/>
  <outline>
    <contour>
      <point x="14" y="204" type="line"/>
      <point x="374" y="204" type="line"/>
      <point x="386" y="267" type="line"/>
      <point x="49" y="267" type="line"/>
      <point x="43" y="238" type="line"/>
      <point x="343" y="702" type="line"/>
      <point x="346" y="710" type="line"/>
      <point x="317" y="710" type="line"/>
      <point x="24" y="258" type="line"/>
    </contour>
    <contour>
      <point x="278" y="71" type="curve" smooth="yes"/>
      <point x="389" y="710" type="line"/>
      <point x="330" y="710" type="line"/>
      <point x="303" y="674" type="line"/>
      <point x="199" y="71" type="line" smooth="yes"/>
      <point x="193" y="40"/>
      <point x="170" y="33"/>
      <point x="130" y="33" type="curve" smooth="yes"/>
      <point x="119" y="33" type="line"/>
      <point x="112" y="0" type="line"/>
      <point x="332" y="0" type="line"/>
      <point x="339" y="33" type="line"/>
      <point x="329" y="33" type="line" smooth="yes"/>
      <point x="293" y="33"/>
      <point x="272" y="40"/>
    </contour>
  </outline>
</glyph>
<glyph name="g.alt" format="2">
  <advance width="422"/>
  <outline>
    <contour>
      <point x="457" y="452" type="curve"/>
      <point x="471" y="527" type="line"/>
      <point x="465" y="528"/>
      <point x="459" y="529"/>
      <point x="453" y="529" type="curve" smooth="yes"/>
      <point x="413" y="529"/>
      <point x="380" y="500"/>
      <point x="348" y="445" type="curve"/>
      <point x="354" y="429" type="line"/>
      <point x="379" y="461"/>
      <point x="416" y="466"/>
    </contour>
    <contour>
      <point x="211" y="193" type="curve" smooth="yes"/>
      <point x="170" y="193"/>
      <point x="151" y="237"/>
      <point x="155" y="306" type="curve" smooth="yes"/>
      <point x="161" y="412"/>
      <point x="202" y="495"/>
      <point x="257" y="495" type="curve" smooth="yes"/>
      <point x="296" y="495"/>
      <point x="314" y="452"/>
      <point x="310" y="383" type="curve" smooth="yes"/>
      <point x="305" y="281"/>
      <point x="263" y="193"/>
    </contour>
    <contour>
      <point x="211" y="160" type="curve" smooth="yes"/>
      <point x="311" y="160"/>
      <point x="378" y="258"/>
      <point x="383" y="362" type="curve" smooth="yes"/>
      <point x="388" y="463"/>
      <point x="336" y="528"/>
      <point x="254" y="528" type="curve" smooth="yes"/>
      <point x="154" y="528"/>
      <point x="87" y="431"/>
      <point x="81" y="327" type="curve" smooth="yes"/>
      <point x="76" y="226"/>
      <point x="128" y="160"/>
    </contour>
    <contour>
      <point x="123" y="-249" type="curve" smooth="yes"/>
      <point x="143" y="-249" type="line" smooth="yes"/>
      <point x="262" y="-249"/>
      <point x="357" y="-184"/>
      <point x="364" y="-55" type="curve" smooth="yes"/>
      <point x="368" y="16"/>
      <point x="334" y="66"/>
      <point x="261" y="66" type="curve" smooth="yes"/>
      <point x="128" y="66" type="line" smooth="yes"/>
      <point x="96" y="66"/>
      <point x="80" y="87"/>
      <point x="81" y="114" type="curve" smooth="yes"/>
      <point x="83" y="148"/>
      <point x="103" y="174"/>
      <point x="143" y="195" type="curve"/>
      <point x="126" y="212" type="line"/>
      <point x="60" y="179"/>
      <point x="27" y="133"/>
      <point x="24" y="77" type="curve" smooth="yes"/>
      <point x="22" y="40"/>
      <point x="33" y="8"/>
      <point x="57" y="-10" type="curve"/>
      <point x="54" y="-24" type="line"/>
      <point x="244" y="-24" type="line" smooth="yes"/>
      <point x="287" y="-24"/>
      <point x="301" y="-51"/>
      <point x="299" y="-87" type="curve" smooth="yes"/>
      <point x="296" y="-162"/>
      <point x="238" y="-216"/>
      <point x="149" y="-216" type="curve" smooth="yes"/>
      <point x="132" y="-216" type="line" smooth="yes"/>
      <point x="52" y="-216"/>
      <point x="18" y="-173"/>
      <point x="21" y="-116" type="curve" smooth="yes"/>
      <point x="23" y="-70"/>
      <point x="42" y="-31"/>
      <point x="93" y="-11" type="curve"/>
      <point x="87" y="7" type="line"/>
      <point x="6" y="-20"/>
      <point x="-31" y="-61"/>
      <point x="-34" y="-120" type="curve" smooth="yes"/>
      <point x="-38" y="-200"/>
      <point x="29" y="-249"/>
    </contour>
  </outline>
</glyph>
<glyph name="grave.uc" format="2">
  <advance width="352"/>
  <anchor x="215" y="694" name="_top"/>
  <outline>
    <contour>
      <point x="294" y="766" type="line"/>
      <point x="233" y="810" type="line" smooth="yes"/>
      <point x="206" y="828"/>
      <point x="191" y="850"/>
      <point x="192" y="877" type="curve" smooth="yes"/>
      <point x="193" y="898"/>
      <point x="207" y="918"/>
      <point x="227" y="918" type="curve" smooth="yes"/>
      <point x="247" y="918"/>
      <point x="259" y="902"/>
      <point x="274" y="872" type="curve" smooth="yes"/>
      <point x="310" y="779" type="line"/>
      <point x="309" y="766" type="line"/>
    </contour>
  </outline>
</glyph>
<glyph name="guarani.proportional" format="2">
  <advance width="527"/>
  <outline>
    <contour>
      <point x="348" y="790" type="line"/>
      <point x="330" y="686" type="line"/>
      <point x="328" y="675" type="line"/>
      <point x="216" y="37" type="line"/>
      <point x="213" y="26" type="line"/>
      <point x="189" y="-120" type="line"/>
      <point x="217" y="-120" type="line"/>
      <point x="242" y="25" type="line"/>
      <point x="243" y="36" type="line"/>
      <point x="356" y="677" type="line"/>
      <point x="358" y="684" type="line"/>
      <point x="376" y="790" type="line"/>
    </contour>
    <contour>
      <point x="404" y="287" type="curve" smooth="yes"/>
      <point x="369" y="99" type="line"/>
      <point x="348" y="70"/>
      <point x="305" y="40"/>
      <point x="263" y="40" type="curve" smooth="yes"/>
      <point x="173" y="40"/>
      <point x="123" y="130"/>
      <point x="132" y="304" type="curve" smooth="yes"/>
      <point x="142" y="500"/>
      <point x="210" y="670"/>
      <point x="343" y="670" type="curve" smooth="yes"/>
      <point x="411" y="670"/>
      <point x="468" y="621"/>
      <point x="475" y="584" type="curve"/>
      <point x="491" y="612"/>
      <point x="476" y="635"/>
      <point x="455" y="643" type="curve"/>
      <point x="431" y="510" type="line"/>
      <point x="506" y="510" type="line"/>
      <point x="524" y="616" type="line"/>
      <point x="495" y="654"/>
      <point x="437" y="701"/>
      <point x="345" y="701" type="curve" smooth="yes"/>
      <point x="175" y="701"/>
      <point x="60" y="534"/>
      <point x="49" y="321" type="curve" smooth="yes"/>
      <point x="38" y="124"/>
      <point x="135" y="9"/>
      <point x="255" y="9" type="curve" smooth="yes"/>
      <point x="330" y="9"/>
      <point x="407" y="65"/>
      <point x="447" y="115" type="curve"/>
      <point x="479" y="286" type="line" smooth="yes"/>
      <point x="486" y="321"/>
      <point x="502" y="326"/>
      <point x="521" y="326" type="curve" smooth="yes"/>
      <point x="530" y="326" type="line"/>
      <point x="534" y="351" type="line"/>
      <point x="363" y="351" type="line"/>
      <point x="359" y="326" type="line"/>
      <point x="370" y="326" type="line" smooth="yes"/>
      <point x="396" y="325"/>
      <point x="410" y="317"/>
    </contour>
  </outline>
</glyph>
<glyph name="heart" format="2">
  <advance width="633"/>
  <outline>
    <contour>
      <point x="321" y="-10" type="line"/>
      <point x="337" y="-10" type="line"/>
      <point x="519" y="273" type="line" smooth="yes"/>
      <point x="585" y="375"/>
      <point x="621" y="437"/>
      <point x="626" y="535" type="curve" smooth="yes"/>
      <point x="631" y="632"/>
      <point x="588" y="710"/>
      <point x="507" y="710" type="curve" smooth="yes"/>
      <point x="441" y="710"/>
      <point x="392" y="657"/>
      <point x="361" y="569" type="curve"/>
      <point x="338" y="657"/>
      <point x="293" y="710"/>
      <point x="228" y="710" type="curve" smooth="yes"/>
      <point x="146" y="710"/>
      <point x="97" y="632"/>
      <point x="92" y="535" type="curve" smooth="yes"/>
      <point x="87" y="437"/>
      <point x="116" y="375"/>
      <point x="170" y="273" type="curve" smooth="yes"/>
    </contour>
  </outline>
</glyph>
<glyph name="heartsuitwhite" format="2">
  <advance width="633"/>
  <outline>
    <contour>
      <point x="123" y="531" type="curve" smooth="yes"/>
      <point x="127" y="613"/>
      <point x="166" y="671"/>
      <point x="228" y="671" type="curve" smooth="yes"/>
      <point x="295" y="671"/>
      <point x="336" y="582"/>
      <point x="353" y="494" type="curve"/>
      <point x="360" y="494" type="line"/>
      <point x="388" y="582"/>
      <point x="435" y="671"/>
      <point x="502" y="671" type="curve" smooth="yes"/>
      <point x="565" y="671"/>
      <point x="598" y="613"/>
      <point x="594" y="531" type="curve" smooth="yes"/>
      <point x="589" y="448"/>
      <point x="555" y="389"/>
      <point x="497" y="297" type="curve" smooth="yes"/>
      <point x="324" y="26" type="line"/>
      <point x="339" y="26" type="line"/>
      <point x="195" y="297" type="line" smooth="yes"/>
      <point x="146" y="388"/>
      <point x="118" y="448"/>
    </contour>
    <contour>
      <point x="92" y="535" type="curve" smooth="yes"/>
      <point x="87" y="437"/>
      <point x="116" y="375"/>
      <point x="170" y="273" type="curve" smooth="yes"/>
      <point x="321" y="-10" type="line"/>
      <point x="337" y="-10" type="line"/>
      <point x="519" y="273" type="line" smooth="yes"/>
      <point x="585" y="375"/>
      <point x="621" y="437"/>
      <point x="626" y="535" type="curve" smooth="yes"/>
      <point x="631" y="632"/>
      <point x="588" y="710"/>
      <point x="507" y="710" type="curve" smooth="yes"/>
      <point x="441" y="710"/>
      <point x="392" y="657"/>
      <point x="361" y="569" type="curve"/>
      <point x="338" y="657"/>
      <point x="293" y="710"/>
      <point x="228" y="710" type="curve" smooth="yes"/>
      <point x="146" y="710"/>
      <point x="97" y="632"/>
    </contour>
  </outline>
</glyph>
<glyph name="horn" format="2">
  <advance width="352"/>
  <anchor x="206" y="444" name="_top"/>
  <outline>
    <contour>
      <point x="114" y="498" type="line"/>
      <point x="234" y="484"/>
      <point x="302" y="539"/>
      <point x="321" y="690" type="curve"/>
      <point x="260" y="690" type="line"/>
      <point x="241" y="551"/>
      <point x="213" y="519"/>
      <point x="96" y="519" type="curve"/>
    </contour>
  </outline>
</glyph>
<glyph name="lira.alt" format="2">
  <advance width="393"/>
  <outline>
    <contour>
      <point x="-8" y="0" type="line"/>
      <point x="327" y="0" type="line"/>
      <point x="370" y="245" type="line"/>
      <point x="345" y="245" type="line"/>
      <point x="315" y="134" type="line" smooth="yes"/>
      <point x="302" y="90"/>
      <point x="276" y="76"/>
      <point x="217" y="76" type="curve"/>
      <point x="66" y="76" type="line"/>
      <point x="51" y="46" type="line"/>
      <point x="124" y="87"/>
      <point x="192" y="186"/>
      <point x="198" y="302" type="curve" smooth="yes"/>
      <point x="202" y="377"/>
      <point x="189" y="435"/>
      <point x="193" y="508" type="curve" smooth="yes"/>
      <point x="200" y="645"/>
      <point x="241" y="689"/>
      <point x="300" y="689" type="curve" smooth="yes"/>
      <point x="343" y="689"/>
      <point x="368" y="664"/>
      <point x="378" y="634" type="curve"/>
      <point x="384" y="646"/>
      <point x="381" y="679"/>
      <point x="359" y="681" type="curve"/>
      <point x="339" y="570" type="line"/>
      <point x="409" y="570" type="line"/>
      <point x="426" y="663" type="line"/>
      <point x="409" y="687"/>
      <point x="366" y="720"/>
      <point x="301" y="720" type="curve" smooth="yes"/>
      <point x="194" y="720"/>
      <point x="119" y="642"/>
      <point x="112" y="512" type="curve" smooth="yes"/>
      <point x="107" y="419"/>
      <point x="141" y="359"/>
      <point x="136" y="265" type="curve" smooth="yes"/>
      <point x="130" y="162"/>
      <point x="70" y="89"/>
      <point x="-1" y="40" type="curve"/>
    </contour>
    <contour>
      <point x="45" y="300" type="line"/>
      <point x="39" y="267" type="line"/>
      <point x="303" y="267" type="line"/>
      <point x="308" y="300" type="line"/>
    </contour>
    <contour>
      <point x="68" y="431" type="line"/>
      <point x="62" y="398" type="line"/>
      <point x="326" y="398" type="line"/>
      <point x="331" y="431" type="line"/>
    </contour>
  </outline>
</glyph>
<glyph name="minus.sup" format="2">
  <advance width="278"/>
  <outline>
    <contour>
      <point x="301" y="578" type="line"/>
      <point x="95" y="578" type="line"/>
      <point x="90" y="554" type="line"/>
      <point x="297" y="554" type="line"/>
    </contour>
  </outline>
</glyph>
<glyph name="nine.midprop" format="2">
  <advance width="404"/>
  <outline>
    <contour>
      <point x="21" y="-67" type="line"/>
      <point x="186" y="-57"/>
      <point x="277" y="69"/>
      <point x="308" y="287" type="curve" smooth="yes"/>
      <point x="314" y="316"/>
      <point x="318" y="351"/>
      <point x="320" y="383" type="curve" smooth="yes"/>
      <point x="327" y="519"/>
      <point x="298" y="586"/>
      <point x="240" y="586" type="curve" smooth="yes"/>
      <point x="194" y="586"/>
      <point x="157" y="529"/>
      <point x="142" y="442" type="curve" smooth="yes"/>
      <point x="137" y="419"/>
      <point x="134" y="396"/>
      <point x="132" y="372" type="curve" smooth="yes"/>
      <point x="127" y="263"/>
      <point x="152" y="211"/>
      <point x="202" y="211" type="curve" smooth="yes"/>
      <point x="254" y="211"/>
      <point x="296" y="267"/>
      <point x="330" y="356" type="curve"/>
      <point x="328" y="318" type="line"/>
      <point x="301" y="241"/>
      <point x="246" y="177"/>
      <point x="180" y="177" type="curve" smooth="yes"/>
      <point x="100" y="177"/>
      <point x="45" y="261"/>
      <point x="51" y="378" type="curve" smooth="yes"/>
      <point x="58" y="513"/>
      <point x="137" y="619"/>
      <point x="242" y="619" type="curve" smooth="yes"/>
      <point x="341" y="619"/>
      <point x="407" y="529"/>
      <point x="398" y="360" type="curve" smooth="yes"/>
      <point x="385" y="121"/>
      <point x="251" y="-84"/>
      <point x="18" y="-93" type="curve"/>
    </contour>
  </outline>
</glyph>
<glyph name="nine.oldtab" format="2">
  <advance width="393"/>
  <outline>
    <contour>
      <point x="11" y="-128" type="line"/>
      <point x="173" y="-118"/>
      <point x="261" y="9"/>
      <point x="293" y="226" type="curve" smooth="yes"/>
      <point x="298" y="255"/>
      <point x="303" y="289"/>
      <point x="305" y="322" type="curve" smooth="yes"/>
      <point x="312" y="458"/>
      <point x="284" y="525"/>
      <point x="229" y="525" type="curve" smooth="yes"/>
      <point x="184" y="525"/>
      <point x="148" y="469"/>
      <point x="133" y="384" type="curve" smooth="yes"/>
      <point x="128" y="361"/>
      <point x="125" y="338"/>
      <point x="123" y="314" type="curve" smooth="yes"/>
      <point x="118" y="206"/>
      <point x="142" y="156"/>
      <point x="190" y="156" type="curve" smooth="yes"/>
      <point x="239" y="156"/>
      <point x="279" y="212"/>
      <point x="313" y="300" type="curve"/>
      <point x="311" y="263" type="line"/>
      <point x="284" y="185"/>
      <point x="231" y="122"/>
      <point x="168" y="122" type="curve" smooth="yes"/>
      <point x="90" y="122"/>
      <point x="36" y="204"/>
      <point x="42" y="320" type="curve" smooth="yes"/>
      <point x="49" y="453"/>
      <point x="126" y="558"/>
      <point x="230" y="558" type="curve" smooth="yes"/>
      <point x="328" y="558"/>
      <point x="392" y="468"/>
      <point x="383" y="299" type="curve" smooth="yes"/>
      <point x="370" y="62"/>
      <point x="238" y="-145"/>
      <point x="9" y="-154" type="curve"/>
    </contour>
  </outline>
</glyph>
<glyph name="one.lintab" format="2">
  <advance width="393"/>
  <outline>
    <contour>
      <point x="224" y="71" type="curve" smooth="yes"/>
      <point x="336" y="710" type="line"/>
      <point x="285" y="710" type="line"/>
      <point x="249" y="652"/>
      <point x="195" y="628"/>
      <point x="121" y="627" type="curve"/>
      <point x="110" y="569" type="line"/>
      <point x="169" y="568"/>
      <point x="234" y="617"/>
      <point x="258" y="669" type="curve"/>
      <point x="245" y="656" type="line"/>
      <point x="144" y="71" type="line" smooth="yes"/>
      <point x="138" y="40"/>
      <point x="108" y="32"/>
      <point x="57" y="32" type="curve" smooth="yes"/>
      <point x="29" y="32" type="line"/>
      <point x="23" y="0" type="line"/>
      <point x="318" y="0" type="line"/>
      <point x="325" y="32" type="line"/>
      <point x="304" y="32" type="line" smooth="yes"/>
      <point x="248" y="32"/>
      <point x="219" y="40"/>
    </contour>
  </outline>
</glyph>
<glyph name="one.midprop" format="2">
  <advance width="351"/>
  <outline>
    <contour>
      <point x="219" y="71" type="curve" smooth="yes"/>
      <point x="314" y="609" type="line"/>
      <point x="263" y="609" type="line"/>
      <point x="227" y="552"/>
      <point x="178" y="527"/>
      <point x="107" y="526" type="curve"/>
      <point x="96" y="468" type="line"/>
      <point x="151" y="467"/>
      <point x="212" y="517"/>
      <point x="235" y="568" type="curve"/>
      <point x="223" y="555" type="line"/>
      <point x="139" y="71" type="line" smooth="yes"/>
      <point x="133" y="40"/>
      <point x="106" y="32"/>
      <point x="60" y="32" type="curve" smooth="yes"/>
      <point x="37" y="32" type="line"/>
      <point x="31" y="0" type="line"/>
      <point x="298" y="0" type="line"/>
      <point x="305" y="32" type="line"/>
      <point x="290" y="32" type="line" smooth="yes"/>
      <point x="240" y="32"/>
      <point x="213" y="40"/>
    </contour>
  </outline>
</glyph>
<glyph name="peseta.proportional" format="2">
  <advance width="588"/>
  <outline>
    <contour>
      <point x="-7" y="0" type="line"/>
      <point x="195" y="0" type="line"/>
      <point x="202" y="31" type="line"/>
      <point x="189" y="31" type="line" smooth="yes"/>
      <point x="165" y="31"/>
      <point x="135" y="35"/>
      <point x="137" y="55" type="curve" smooth="yes"/>
      <point x="181" y="305" type="line"/>
      <point x="211" y="305" type="line" smooth="yes"/>
      <point x="331" y="305"/>
      <point x="411" y="403"/>
      <point x="418" y="529" type="curve" smooth="yes"/>
      <point x="424" y="644"/>
      <point x="369" y="710"/>
      <point x="271" y="710" type="curve" smooth="yes"/>
      <point x="118" y="710" type="line"/>
      <point x="113" y="679" type="line"/>
      <point x="118" y="679" type="line" smooth="yes"/>
      <point x="142" y="679"/>
      <point x="168" y="672"/>
      <point x="164" y="647" type="curve" smooth="yes"/>
      <point x="61" y="64" type="line" smooth="yes"/>
      <point x="57" y="38"/>
      <point x="30" y="31"/>
      <point x="3" y="31" type="curve" smooth="yes"/>
      <point x="-1" y="31" type="line"/>
    </contour>
    <contour>
      <point x="260" y="675" type="line" smooth="yes"/>
      <point x="317" y="675"/>
      <point x="344" y="628"/>
      <point x="339" y="539" type="curve" smooth="yes"/>
      <point x="338" y="513"/>
      <point x="335" y="487"/>
      <point x="329" y="465" type="curve" smooth="yes"/>
      <point x="311" y="388"/>
      <point x="273" y="339"/>
      <point x="210" y="339" type="curve" smooth="yes"/>
      <point x="187" y="339" type="line"/>
      <point x="246" y="675" type="line"/>
    </contour>
    <contour>
      <point x="464" y="502" type="line"/>
      <point x="407" y="169" type="line" smooth="yes"/>
      <point x="402" y="146"/>
      <point x="400" y="126"/>
      <point x="399" y="105" type="curve" smooth="yes"/>
      <point x="394" y="20"/>
      <point x="433" y="-10"/>
      <point x="481" y="-10" type="curve" smooth="yes"/>
      <point x="503" y="-10"/>
      <point x="527" y="0"/>
      <point x="536" y="9" type="curve"/>
      <point x="543" y="45" type="line"/>
      <point x="534" y="37"/>
      <point x="519" y="27"/>
      <point x="501" y="27" type="curve" smooth="yes"/>
      <point x="479" y="27"/>
      <point x="466" y="45"/>
      <point x="469" y="87" type="curve" smooth="yes"/>
      <point x="470" y="110"/>
      <point x="473" y="129"/>
      <point x="477" y="156" type="curve" smooth="yes"/>
      <point x="564" y="648" type="line"/>
      <point x="514" y="648" type="line"/>
      <point x="497" y="587" type="line" smooth="yes"/>
      <point x="481" y="529"/>
      <point x="458" y="513"/>
      <point x="416" y="513" type="curve" smooth="yes"/>
      <point x="402" y="513" type="line"/>
      <point x="396" y="486" type="line"/>
      <point x="603" y="486" type="line"/>
      <point x="609" y="518" type="line"/>
      <point x="480" y="518" type="line"/>
    </contour>
  </outline>
</glyph>
<glyph name="plus.sub" format="2">
  <advance width="278"/>
  <outline>
    <contour>
      <point x="119" y="234" type="line"/>
      <point x="66" y="-74" type="line"/>
      <point x="87" y="-74" type="line"/>
      <point x="141" y="234" type="line"/>
    </contour>
    <contour>
      <point x="210" y="92" type="line"/>
      <point x="3" y="92" type="line"/>
      <point x="0" y="68" type="line"/>
      <point x="206" y="68" type="line"/>
    </contour>
  </outline>
</glyph>
<glyph name="seven.midprop" format="2">
  <advance width="382"/>
  <outline>
    <contour>
      <point x="215" y="533" type="line" smooth="yes"/>
      <point x="157" y="533"/>
      <point x="134" y="522"/>
      <point x="118" y="469" type="curve" smooth="yes"/>
      <point x="91" y="387" type="line"/>
      <point x="68" y="387" type="line"/>
      <point x="107" y="609" type="line"/>
      <point x="436" y="609" type="line"/>
      <point x="426" y="551" type="line"/>
      <point x="314" y="393"/>
      <point x="236" y="229"/>
      <point x="167" y="-77" type="curve"/>
      <point x="90" y="-77" type="line"/>
      <point x="164" y="221"/>
      <point x="338" y="484"/>
      <point x="405" y="562" type="curve"/>
      <point x="401" y="533" type="line"/>
    </contour>
  </outline>
</glyph>
<glyph name="six.oldtab" format="2">
  <advance width="393"/>
  <outline>
    <contour>
      <point x="187" y="-10" type="curve" smooth="yes"/>
      <point x="287" y="-10"/>
      <point x="374" y="96"/>
      <point x="382" y="257" type="curve" smooth="yes"/>
      <point x="389" y="380"/>
      <point x="336" y="451"/>
      <point x="262" y="451" type="curve" smooth="yes"/>
      <point x="200" y="451"/>
      <point x="142" y="386"/>
      <point x="109" y="301" type="curve"/>
      <point x="112" y="276" type="line"/>
      <point x="149" y="363"/>
      <point x="192" y="417"/>
      <point x="238" y="417" type="curve" smooth="yes"/>
      <point x="288" y="417"/>
      <point x="306" y="360"/>
      <point x="301" y="264" type="curve" smooth="yes"/>
      <point x="299" y="236"/>
      <point x="296" y="210"/>
      <point x="292" y="184" type="curve" smooth="yes"/>
      <point x="273" y="85"/>
      <point x="236" y="23"/>
      <point x="189" y="23" type="curve" smooth="yes"/>
      <point x="136" y="23"/>
      <point x="107" y="91"/>
      <point x="114" y="221" type="curve" smooth="yes"/>
      <point x="115" y="257"/>
      <point x="119" y="293"/>
      <point x="127" y="327" type="curve" smooth="yes"/>
      <point x="162" y="537"/>
      <point x="264" y="681"/>
      <point x="408" y="714" type="curve"/>
      <point x="411" y="740" type="line"/>
      <point x="199" y="706"/>
      <point x="48" y="487"/>
      <point x="35" y="244" type="curve" smooth="yes"/>
      <point x="27" y="90"/>
      <point x="89" y="-10"/>
    </contour>
  </outline>
</glyph>
<glyph name="thai:baht.proportional" format="2">
  <advance width="506"/>
  <outline>
    <contour>
      <point x="347" y="790" type="line"/>
      <point x="329" y="686" type="line"/>
      <point x="327" y="671" type="line"/>
      <point x="215" y="36" type="line"/>
      <point x="213" y="26" type="line"/>
      <point x="189" y="-111" type="line"/>
      <point x="217" y="-111" type="line"/>
      <point x="241" y="27" type="line"/>
      <point x="243" y="39" type="line"/>
      <point x="355" y="673" type="line"/>
      <point x="357" y="684" type="line"/>
      <point x="375" y="790" type="line"/>
    </contour>
    <contour>
      <point x="332" y="370" type="line"/>
      <point x="443" y="370"/>
      <point x="500" y="452"/>
      <point x="504" y="541" type="curve" smooth="yes"/>
      <point x="509" y="631"/>
      <point x="455" y="701"/>
      <point x="347" y="701" type="curve" smooth="yes"/>
      <point x="118" y="701" type="line"/>
      <point x="112" y="670" type="line"/>
      <point x="117" y="670" type="line" smooth="yes"/>
      <point x="146" y="670"/>
      <point x="168" y="664"/>
      <point x="162" y="632" type="curve" smooth="yes"/>
      <point x="62" y="64" type="line" smooth="yes"/>
      <point x="58" y="38"/>
      <point x="31" y="31"/>
      <point x="5" y="31" type="curve" smooth="yes"/>
      <point x="0" y="31" type="line"/>
      <point x="-6" y="0" type="line"/>
      <point x="251" y="0" type="line" smooth="yes"/>
      <point x="395" y="0"/>
      <point x="462" y="82"/>
      <point x="469" y="206" type="curve" smooth="yes"/>
      <point x="474" y="299"/>
      <point x="420" y="370"/>
      <point x="307" y="382" type="curve"/>
      <point x="342" y="365" type="line"/>
      <point x="348" y="380" type="line"/>
    </contour>
    <contour>
      <point x="196" y="388" type="line"/>
      <point x="246" y="666" type="line"/>
      <point x="338" y="666" type="line" smooth="yes"/>
      <point x="406" y="666"/>
      <point x="432" y="618"/>
      <point x="429" y="547" type="curve" smooth="yes"/>
      <point x="425" y="472"/>
      <point x="395" y="388"/>
      <point x="304" y="388" type="curve" smooth="yes"/>
    </contour>
    <contour>
      <point x="134" y="35" type="line"/>
      <point x="191" y="355" type="line"/>
      <point x="296" y="355" type="line" smooth="yes"/>
      <point x="370" y="355"/>
      <point x="395" y="293"/>
      <point x="391" y="216" type="curve" smooth="yes"/>
      <point x="386" y="112"/>
      <point x="346" y="35"/>
      <point x="255" y="35" type="curve" smooth="yes"/>
    </contour>
  </outline>
</glyph>
<glyph name="three.midprop" format="2">
  <advance width="391"/>
  <outline>
    <contour>
      <point x="216" y="286" type="line"/>
      <point x="313" y="293"/>
      <point x="382" y="367"/>
      <point x="387" y="457" type="curve" smooth="yes"/>
      <point x="392" y="556"/>
      <point x="336" y="618"/>
      <point x="247" y="618" type="curve" smooth="yes"/>
      <point x="182" y="618"/>
      <point x="132" y="585"/>
      <point x="104" y="558" type="curve"/>
      <point x="87" y="447" type="line"/>
      <point x="157" y="447" type="line"/>
      <point x="175" y="575" type="line"/>
      <point x="161" y="565"/>
      <point x="152" y="555"/>
      <point x="152" y="545" type="curve"/>
      <point x="187" y="577"/>
      <point x="213" y="585"/>
      <point x="241" y="585" type="curve" smooth="yes"/>
      <point x="293" y="585"/>
      <point x="314" y="537"/>
      <point x="310" y="460" type="curve" smooth="yes"/>
      <point x="305" y="368"/>
      <point x="266" y="299"/>
      <point x="180" y="299" type="curve" smooth="yes"/>
      <point x="138" y="299" type="line"/>
      <point x="132" y="269" type="line"/>
      <point x="170" y="269" type="line" smooth="yes"/>
      <point x="259" y="269"/>
      <point x="281" y="205"/>
      <point x="276" y="123" type="curve" smooth="yes"/>
      <point x="271" y="23"/>
      <point x="233" y="-57"/>
      <point x="162" y="-57" type="curve" smooth="yes"/>
      <point x="79" y="-57"/>
      <point x="40" y="7"/>
      <point x="25" y="84" type="curve"/>
      <point x="2" y="65" type="line"/>
      <point x="20" y="-29"/>
      <point x="74" y="-90"/>
      <point x="166" y="-90" type="curve" smooth="yes"/>
      <point x="271" y="-90"/>
      <point x="349" y="-11"/>
      <point x="356" y="113" type="curve" smooth="yes"/>
      <point x="360" y="200"/>
      <point x="322" y="279"/>
      <point x="216" y="293" type="curve"/>
      <point x="224" y="282" type="line"/>
      <point x="227" y="295" type="line"/>
    </contour>
  </outline>
</glyph>
